%TF.GenerationSoftware,KiCad,Pcbnew,7.0.9*%
%TF.CreationDate,2024-01-28T12:11:26+01:00*%
%TF.ProjectId,Digital_Clock,44696769-7461-46c5-9f43-6c6f636b2e6b,rev?*%
%TF.SameCoordinates,Original*%
%TF.FileFunction,Legend,Top*%
%TF.FilePolarity,Positive*%
%FSLAX46Y46*%
G04 Gerber Fmt 4.6, Leading zero omitted, Abs format (unit mm)*
G04 Created by KiCad (PCBNEW 7.0.9) date 2024-01-28 12:11:26*
%MOMM*%
%LPD*%
G01*
G04 APERTURE LIST*
G04 Aperture macros list*
%AMRoundRect*
0 Rectangle with rounded corners*
0 $1 Rounding radius*
0 $2 $3 $4 $5 $6 $7 $8 $9 X,Y pos of 4 corners*
0 Add a 4 corners polygon primitive as box body*
4,1,4,$2,$3,$4,$5,$6,$7,$8,$9,$2,$3,0*
0 Add four circle primitives for the rounded corners*
1,1,$1+$1,$2,$3*
1,1,$1+$1,$4,$5*
1,1,$1+$1,$6,$7*
1,1,$1+$1,$8,$9*
0 Add four rect primitives between the rounded corners*
20,1,$1+$1,$2,$3,$4,$5,0*
20,1,$1+$1,$4,$5,$6,$7,0*
20,1,$1+$1,$6,$7,$8,$9,0*
20,1,$1+$1,$8,$9,$2,$3,0*%
%AMFreePoly0*
4,1,9,3.862500,-0.866500,0.737500,-0.866500,0.737500,-0.450000,-0.737500,-0.450000,-0.737500,0.450000,0.737500,0.450000,0.737500,0.866500,3.862500,0.866500,3.862500,-0.866500,3.862500,-0.866500,$1*%
G04 Aperture macros list end*
%ADD10C,0.150000*%
%ADD11C,0.200000*%
%ADD12C,0.120000*%
%ADD13R,0.410000X1.600000*%
%ADD14R,3.500000X3.500000*%
%ADD15RoundRect,0.750000X0.750000X1.000000X-0.750000X1.000000X-0.750000X-1.000000X0.750000X-1.000000X0*%
%ADD16RoundRect,0.875000X0.875000X0.875000X-0.875000X0.875000X-0.875000X-0.875000X0.875000X-0.875000X0*%
%ADD17R,1.600000X1.600000*%
%ADD18C,1.600000*%
%ADD19R,1.700000X1.700000*%
%ADD20O,1.700000X1.700000*%
%ADD21RoundRect,0.250000X-0.325000X-0.650000X0.325000X-0.650000X0.325000X0.650000X-0.325000X0.650000X0*%
%ADD22C,5.600000*%
%ADD23RoundRect,0.250000X0.312500X0.625000X-0.312500X0.625000X-0.312500X-0.625000X0.312500X-0.625000X0*%
%ADD24RoundRect,0.250000X-0.650000X0.325000X-0.650000X-0.325000X0.650000X-0.325000X0.650000X0.325000X0*%
%ADD25R,2.100000X2.100000*%
%ADD26C,2.100000*%
%ADD27RoundRect,0.100000X0.100000X-0.637500X0.100000X0.637500X-0.100000X0.637500X-0.100000X-0.637500X0*%
%ADD28RoundRect,0.250000X-0.312500X-0.625000X0.312500X-0.625000X0.312500X0.625000X-0.312500X0.625000X0*%
%ADD29RoundRect,0.150000X0.875000X0.150000X-0.875000X0.150000X-0.875000X-0.150000X0.875000X-0.150000X0*%
%ADD30RoundRect,0.250000X0.650000X-0.325000X0.650000X0.325000X-0.650000X0.325000X-0.650000X-0.325000X0*%
%ADD31C,2.000000*%
%ADD32RoundRect,0.250000X-0.450000X-0.425000X0.450000X-0.425000X0.450000X0.425000X-0.450000X0.425000X0*%
%ADD33RoundRect,0.250000X-0.650000X1.000000X-0.650000X-1.000000X0.650000X-1.000000X0.650000X1.000000X0*%
%ADD34R,1.300000X0.900000*%
%ADD35FreePoly0,180.000000*%
%ADD36RoundRect,0.250000X0.325000X0.650000X-0.325000X0.650000X-0.325000X-0.650000X0.325000X-0.650000X0*%
%ADD37RoundRect,0.250000X-0.625000X0.312500X-0.625000X-0.312500X0.625000X-0.312500X0.625000X0.312500X0*%
%ADD38RoundRect,0.250000X0.625000X-0.375000X0.625000X0.375000X-0.625000X0.375000X-0.625000X-0.375000X0*%
%ADD39R,1.500000X1.500000*%
%ADD40C,1.500000*%
G04 APERTURE END LIST*
D10*
X176530000Y-115570000D02*
X189230000Y-115570000D01*
X189230000Y-120650000D01*
X176530000Y-120650000D01*
X176530000Y-115570000D01*
G36*
X136138643Y-61682676D02*
G01*
X131565061Y-61682676D01*
X131565061Y-61070842D01*
X131707918Y-61070842D01*
X131716827Y-61121366D01*
X131756127Y-61154343D01*
X131781779Y-61158866D01*
X132087731Y-61158866D01*
X132087731Y-61464819D01*
X132105278Y-61513028D01*
X132149707Y-61538680D01*
X132200231Y-61529771D01*
X132233208Y-61490471D01*
X132237731Y-61464819D01*
X132237731Y-61158866D01*
X132543684Y-61158866D01*
X132591893Y-61141319D01*
X132617545Y-61096890D01*
X132608636Y-61046366D01*
X132569336Y-61013389D01*
X132543684Y-61008866D01*
X132237731Y-61008866D01*
X132237731Y-60702914D01*
X132220184Y-60654705D01*
X132175755Y-60629053D01*
X132125231Y-60637962D01*
X132092254Y-60677262D01*
X132087731Y-60702914D01*
X132087731Y-61008866D01*
X131781779Y-61008866D01*
X131733570Y-61026413D01*
X131707918Y-61070842D01*
X131565061Y-61070842D01*
X131565061Y-60451795D01*
X132850775Y-60451795D01*
X132859684Y-60502319D01*
X132898984Y-60535296D01*
X132924636Y-60539819D01*
X133378401Y-60539819D01*
X133153907Y-60796383D01*
X133146600Y-60815234D01*
X133136489Y-60832747D01*
X133137528Y-60838640D01*
X133135366Y-60844219D01*
X133141886Y-60863358D01*
X133145398Y-60883271D01*
X133149981Y-60887116D01*
X133151911Y-60892781D01*
X133169209Y-60903251D01*
X133184698Y-60916248D01*
X133193141Y-60917736D01*
X133195800Y-60919346D01*
X133199241Y-60918812D01*
X133210350Y-60920771D01*
X133335502Y-60920771D01*
X133404018Y-60955029D01*
X133434425Y-60985436D01*
X133468683Y-61053952D01*
X133468683Y-61256637D01*
X133434424Y-61325153D01*
X133404017Y-61355561D01*
X133335502Y-61389819D01*
X133085198Y-61389819D01*
X133016682Y-61355561D01*
X132977670Y-61316548D01*
X132931173Y-61294866D01*
X132881618Y-61308143D01*
X132852192Y-61350168D01*
X132856662Y-61401275D01*
X132871602Y-61422612D01*
X132919221Y-61470232D01*
X132920702Y-61470922D01*
X132938714Y-61484282D01*
X133033952Y-61531901D01*
X133038405Y-61532413D01*
X133041841Y-61535296D01*
X133067493Y-61539819D01*
X133353207Y-61539819D01*
X133357420Y-61538285D01*
X133361781Y-61539327D01*
X133386748Y-61531901D01*
X133481986Y-61484282D01*
X133483110Y-61483094D01*
X133501479Y-61470232D01*
X133549097Y-61422613D01*
X133549787Y-61421131D01*
X133557551Y-61410664D01*
X133849922Y-61410664D01*
X133854964Y-61429484D01*
X133856663Y-61448896D01*
X133862336Y-61456998D01*
X133863199Y-61460219D01*
X133865930Y-61462131D01*
X133871603Y-61470233D01*
X133919222Y-61517852D01*
X133936880Y-61526085D01*
X133952844Y-61537264D01*
X133956260Y-61536965D01*
X133959231Y-61538680D01*
X133962610Y-61538084D01*
X133965718Y-61539533D01*
X133984537Y-61534490D01*
X134003951Y-61532792D01*
X134007764Y-61530122D01*
X134009755Y-61529771D01*
X134011876Y-61527242D01*
X134012053Y-61527118D01*
X134015273Y-61526256D01*
X134017184Y-61523526D01*
X134025288Y-61517852D01*
X134072907Y-61470233D01*
X134081141Y-61452574D01*
X134092318Y-61436612D01*
X134091728Y-61429869D01*
X134094588Y-61423737D01*
X134089545Y-61404918D01*
X134087848Y-61385505D01*
X134082173Y-61377400D01*
X134081311Y-61374182D01*
X134078581Y-61372270D01*
X134072907Y-61364167D01*
X134025289Y-61316548D01*
X134007631Y-61308314D01*
X133991666Y-61297135D01*
X133988249Y-61297433D01*
X133985279Y-61295719D01*
X133981899Y-61296314D01*
X133978792Y-61294866D01*
X133959972Y-61299908D01*
X133940558Y-61301607D01*
X133936744Y-61304277D01*
X133934755Y-61304628D01*
X133932633Y-61307155D01*
X133932455Y-61307280D01*
X133929237Y-61308143D01*
X133927325Y-61310872D01*
X133919221Y-61316548D01*
X133871602Y-61364168D01*
X133863368Y-61381825D01*
X133852191Y-61397789D01*
X133852781Y-61404532D01*
X133849922Y-61410664D01*
X133557551Y-61410664D01*
X133563146Y-61403121D01*
X133610765Y-61307883D01*
X133611277Y-61303429D01*
X133614160Y-61299994D01*
X133618683Y-61274342D01*
X133618683Y-61036247D01*
X133617149Y-61032033D01*
X133618191Y-61027672D01*
X133610765Y-61002706D01*
X133563146Y-60907468D01*
X133561956Y-60906342D01*
X133549097Y-60887976D01*
X133501478Y-60840357D01*
X133499996Y-60839666D01*
X133481986Y-60826308D01*
X133386748Y-60778689D01*
X133382294Y-60778176D01*
X133378859Y-60775294D01*
X133372635Y-60774196D01*
X133600126Y-60514207D01*
X133607432Y-60495355D01*
X133617544Y-60477843D01*
X133616504Y-60471949D01*
X133618667Y-60466371D01*
X133613701Y-60451795D01*
X134279346Y-60451795D01*
X134288255Y-60502319D01*
X134327555Y-60535296D01*
X134353207Y-60539819D01*
X134806972Y-60539819D01*
X134582478Y-60796383D01*
X134575171Y-60815234D01*
X134565060Y-60832747D01*
X134566099Y-60838640D01*
X134563937Y-60844219D01*
X134570457Y-60863358D01*
X134573969Y-60883271D01*
X134578552Y-60887116D01*
X134580482Y-60892781D01*
X134597780Y-60903251D01*
X134613269Y-60916248D01*
X134621712Y-60917736D01*
X134624371Y-60919346D01*
X134627812Y-60918812D01*
X134638921Y-60920771D01*
X134764073Y-60920771D01*
X134832589Y-60955029D01*
X134862996Y-60985436D01*
X134897254Y-61053952D01*
X134897254Y-61256637D01*
X134862995Y-61325153D01*
X134832588Y-61355561D01*
X134764073Y-61389819D01*
X134513769Y-61389819D01*
X134445253Y-61355561D01*
X134406241Y-61316548D01*
X134359744Y-61294866D01*
X134310189Y-61308143D01*
X134280763Y-61350168D01*
X134285233Y-61401275D01*
X134300173Y-61422612D01*
X134347792Y-61470232D01*
X134349273Y-61470922D01*
X134367285Y-61484282D01*
X134462523Y-61531901D01*
X134466976Y-61532413D01*
X134470412Y-61535296D01*
X134496064Y-61539819D01*
X134781778Y-61539819D01*
X134785991Y-61538285D01*
X134790352Y-61539327D01*
X134815319Y-61531901D01*
X134910557Y-61484282D01*
X134911681Y-61483094D01*
X134930050Y-61470232D01*
X134977668Y-61422613D01*
X134978358Y-61421131D01*
X134991717Y-61403121D01*
X135039336Y-61307883D01*
X135039848Y-61303429D01*
X135042731Y-61299994D01*
X135047254Y-61274342D01*
X135047254Y-61036247D01*
X135045720Y-61032033D01*
X135046762Y-61027672D01*
X135039336Y-61002706D01*
X134991717Y-60907468D01*
X134990527Y-60906342D01*
X134977668Y-60887976D01*
X134930049Y-60840357D01*
X134928567Y-60839666D01*
X134910557Y-60826308D01*
X134815319Y-60778689D01*
X134810865Y-60778176D01*
X134807430Y-60775294D01*
X134801206Y-60774196D01*
X135028697Y-60514207D01*
X135036003Y-60495355D01*
X135046115Y-60477843D01*
X135045075Y-60471949D01*
X135047238Y-60466371D01*
X135046011Y-60462770D01*
X135182997Y-60462770D01*
X135186818Y-60488536D01*
X135520151Y-61488536D01*
X135521493Y-61490227D01*
X135521552Y-61492386D01*
X135537301Y-61510147D01*
X135552042Y-61528722D01*
X135554155Y-61529154D01*
X135555589Y-61530771D01*
X135579059Y-61534251D01*
X135602303Y-61539008D01*
X135604202Y-61537979D01*
X135606338Y-61538296D01*
X135626551Y-61525877D01*
X135647417Y-61514579D01*
X135648210Y-61512571D01*
X135650050Y-61511441D01*
X135662453Y-61488536D01*
X135995786Y-60488536D01*
X135994385Y-60437253D01*
X135960347Y-60398867D01*
X135909599Y-60391342D01*
X135865886Y-60418197D01*
X135853484Y-60441102D01*
X135591302Y-61227648D01*
X135329120Y-60441102D01*
X135297229Y-60400916D01*
X135246968Y-60390630D01*
X135201854Y-60415059D01*
X135182997Y-60462770D01*
X135046011Y-60462770D01*
X135040717Y-60447231D01*
X135037206Y-60427319D01*
X135032622Y-60423473D01*
X135030693Y-60417809D01*
X135013394Y-60407338D01*
X134997906Y-60394342D01*
X134989462Y-60392853D01*
X134986804Y-60391244D01*
X134983362Y-60391777D01*
X134972254Y-60389819D01*
X134353207Y-60389819D01*
X134304998Y-60407366D01*
X134279346Y-60451795D01*
X133613701Y-60451795D01*
X133612146Y-60447231D01*
X133608635Y-60427319D01*
X133604051Y-60423473D01*
X133602122Y-60417809D01*
X133584823Y-60407338D01*
X133569335Y-60394342D01*
X133560891Y-60392853D01*
X133558233Y-60391244D01*
X133554791Y-60391777D01*
X133543683Y-60389819D01*
X132924636Y-60389819D01*
X132876427Y-60407366D01*
X132850775Y-60451795D01*
X131565061Y-60451795D01*
X131565061Y-60246962D01*
X136138643Y-60246962D01*
X136138643Y-61682676D01*
G37*
G36*
X134217455Y-65657990D02*
G01*
X134291568Y-65732103D01*
X134330061Y-65809090D01*
X134373445Y-65982624D01*
X134373445Y-66107013D01*
X134330061Y-66280547D01*
X134291567Y-66357534D01*
X134217455Y-66431647D01*
X134102942Y-66469819D01*
X133952017Y-66469819D01*
X133952017Y-65619819D01*
X134102942Y-65619819D01*
X134217455Y-65657990D01*
G37*
G36*
X135784970Y-65654077D02*
G01*
X135856912Y-65726019D01*
X135897254Y-65887386D01*
X135897254Y-66202251D01*
X135856912Y-66363617D01*
X135784969Y-66435561D01*
X135716454Y-66469819D01*
X135561388Y-66469819D01*
X135492872Y-66435561D01*
X135420929Y-66363617D01*
X135380588Y-66202251D01*
X135380588Y-65887386D01*
X135420929Y-65726019D01*
X135492872Y-65654077D01*
X135561388Y-65619819D01*
X135716454Y-65619819D01*
X135784970Y-65654077D01*
G37*
G36*
X136190111Y-66762676D02*
G01*
X131516303Y-66762676D01*
X131516303Y-65830533D01*
X131659160Y-65830533D01*
X131660693Y-65834746D01*
X131659652Y-65839107D01*
X131667078Y-65864074D01*
X131714697Y-65959312D01*
X131715886Y-65960437D01*
X131728746Y-65978804D01*
X131776365Y-66026423D01*
X131777846Y-66027114D01*
X131795857Y-66040472D01*
X131891095Y-66088091D01*
X131894623Y-66088497D01*
X131906446Y-66093770D01*
X132088936Y-66139392D01*
X132165923Y-66177886D01*
X132196330Y-66208293D01*
X132230588Y-66276809D01*
X132230588Y-66336637D01*
X132196329Y-66405153D01*
X132165922Y-66435561D01*
X132097407Y-66469819D01*
X131889187Y-66469819D01*
X131757877Y-66426049D01*
X131706593Y-66427450D01*
X131668208Y-66461487D01*
X131660683Y-66512236D01*
X131687538Y-66555948D01*
X131710443Y-66568351D01*
X131853299Y-66615970D01*
X131854934Y-66615925D01*
X131877017Y-66619819D01*
X132115112Y-66619819D01*
X132119325Y-66618285D01*
X132123686Y-66619327D01*
X132148653Y-66611901D01*
X132243891Y-66564282D01*
X132245015Y-66563094D01*
X132263384Y-66550232D01*
X132311002Y-66502613D01*
X132311692Y-66501131D01*
X132325051Y-66483121D01*
X132372670Y-66387883D01*
X132373182Y-66383429D01*
X132376065Y-66379994D01*
X132380588Y-66354342D01*
X132380588Y-66259104D01*
X132379054Y-66254890D01*
X132380096Y-66250529D01*
X132372670Y-66225563D01*
X132325051Y-66130325D01*
X132323861Y-66129199D01*
X132311002Y-66110833D01*
X132263383Y-66063214D01*
X132261901Y-66062523D01*
X132243891Y-66049165D01*
X132148653Y-66001546D01*
X132145124Y-66001139D01*
X132133302Y-65995867D01*
X131950812Y-65950244D01*
X131873825Y-65911751D01*
X131843418Y-65881344D01*
X131809160Y-65812828D01*
X131809160Y-65753000D01*
X131843418Y-65684484D01*
X131873825Y-65654077D01*
X131942341Y-65619819D01*
X132150561Y-65619819D01*
X132281870Y-65663589D01*
X132333154Y-65662188D01*
X132371540Y-65628150D01*
X132379065Y-65577402D01*
X132353745Y-65536188D01*
X132564420Y-65536188D01*
X132565962Y-65562191D01*
X132804057Y-66562191D01*
X132808386Y-66568759D01*
X132809082Y-66576597D01*
X132822142Y-66589626D01*
X132832293Y-66605024D01*
X132839831Y-66607272D01*
X132845402Y-66612830D01*
X132863778Y-66614415D01*
X132881455Y-66619688D01*
X132888677Y-66616563D01*
X132896515Y-66617240D01*
X132911611Y-66606642D01*
X132928541Y-66599319D01*
X132932064Y-66592284D01*
X132938505Y-66587764D01*
X132949485Y-66564144D01*
X133067492Y-66121613D01*
X133185501Y-66564144D01*
X133190006Y-66570595D01*
X133190912Y-66578410D01*
X133204317Y-66591083D01*
X133214878Y-66606204D01*
X133222472Y-66608248D01*
X133228191Y-66613655D01*
X133246604Y-66614746D01*
X133264416Y-66619542D01*
X133271552Y-66616224D01*
X133279405Y-66616690D01*
X133294208Y-66605693D01*
X133310939Y-66597916D01*
X133314273Y-66590787D01*
X133320588Y-66586097D01*
X133330929Y-66562191D01*
X133335065Y-66544819D01*
X133802017Y-66544819D01*
X133808680Y-66563127D01*
X133812065Y-66582319D01*
X133817249Y-66586669D01*
X133819564Y-66593028D01*
X133836437Y-66602770D01*
X133851365Y-66615296D01*
X133861107Y-66617013D01*
X133863993Y-66618680D01*
X133867275Y-66618101D01*
X133877017Y-66619819D01*
X134115112Y-66619819D01*
X134116650Y-66619258D01*
X134138829Y-66615970D01*
X134281686Y-66568351D01*
X134285198Y-66565563D01*
X134289665Y-66565173D01*
X134311002Y-66550233D01*
X134316416Y-66544819D01*
X134802017Y-66544819D01*
X134819564Y-66593028D01*
X134863993Y-66618680D01*
X134914517Y-66609771D01*
X134947494Y-66570471D01*
X134952017Y-66544819D01*
X134952017Y-66211485D01*
X135230588Y-66211485D01*
X135231773Y-66214742D01*
X135232827Y-66229675D01*
X135280446Y-66420151D01*
X135284588Y-66426283D01*
X135285233Y-66433657D01*
X135300174Y-66454994D01*
X135395412Y-66550233D01*
X135396894Y-66550924D01*
X135414904Y-66564282D01*
X135510142Y-66611901D01*
X135514595Y-66612413D01*
X135518031Y-66615296D01*
X135543683Y-66619819D01*
X135734159Y-66619819D01*
X135738372Y-66618285D01*
X135742733Y-66619327D01*
X135767700Y-66611901D01*
X135862938Y-66564282D01*
X135864063Y-66563092D01*
X135882430Y-66550233D01*
X135977669Y-66454993D01*
X135980796Y-66448285D01*
X135986786Y-66443940D01*
X135997396Y-66420151D01*
X136045015Y-66229675D01*
X136044654Y-66226226D01*
X136047254Y-66211485D01*
X136047254Y-65878152D01*
X136046068Y-65874894D01*
X136045015Y-65859962D01*
X135997396Y-65669486D01*
X135993254Y-65663353D01*
X135992609Y-65655980D01*
X135977668Y-65634643D01*
X135882430Y-65539405D01*
X135880948Y-65538714D01*
X135862938Y-65525356D01*
X135767700Y-65477737D01*
X135763246Y-65477224D01*
X135759811Y-65474342D01*
X135734159Y-65469819D01*
X135543683Y-65469819D01*
X135539469Y-65471352D01*
X135535108Y-65470311D01*
X135510142Y-65477737D01*
X135414904Y-65525356D01*
X135413780Y-65526542D01*
X135395412Y-65539405D01*
X135300174Y-65634643D01*
X135297046Y-65641350D01*
X135291056Y-65645697D01*
X135280446Y-65669486D01*
X135232827Y-65859962D01*
X135233187Y-65863410D01*
X135230588Y-65878152D01*
X135230588Y-66211485D01*
X134952017Y-66211485D01*
X134952017Y-65544819D01*
X134934470Y-65496610D01*
X134890041Y-65470958D01*
X134839517Y-65479867D01*
X134806540Y-65519167D01*
X134802017Y-65544819D01*
X134802017Y-66544819D01*
X134316416Y-66544819D01*
X134406241Y-66454993D01*
X134406932Y-66453510D01*
X134420289Y-66435502D01*
X134467908Y-66340264D01*
X134468314Y-66336735D01*
X134473587Y-66324913D01*
X134521206Y-66134437D01*
X134520845Y-66130988D01*
X134523445Y-66116247D01*
X134523445Y-65973390D01*
X134522259Y-65970132D01*
X134521206Y-65955200D01*
X134473587Y-65764724D01*
X134471598Y-65761779D01*
X134467908Y-65749373D01*
X134420289Y-65654135D01*
X134419102Y-65653011D01*
X134406240Y-65634643D01*
X134311002Y-65539405D01*
X134306938Y-65537510D01*
X134304591Y-65533689D01*
X134281686Y-65521287D01*
X134138829Y-65473668D01*
X134137194Y-65473712D01*
X134115112Y-65469819D01*
X133877017Y-65469819D01*
X133858708Y-65476482D01*
X133839517Y-65479867D01*
X133835166Y-65485051D01*
X133828808Y-65487366D01*
X133819065Y-65504239D01*
X133806540Y-65519167D01*
X133804822Y-65528909D01*
X133803156Y-65531795D01*
X133803734Y-65535077D01*
X133802017Y-65544819D01*
X133802017Y-66544819D01*
X133335065Y-66544819D01*
X133569025Y-65562191D01*
X133563122Y-65511228D01*
X133525843Y-65475983D01*
X133474629Y-65472948D01*
X133433446Y-65503541D01*
X133423105Y-65527448D01*
X133253852Y-66238303D01*
X133139961Y-65811208D01*
X133136033Y-65805585D01*
X133135428Y-65798755D01*
X133121690Y-65785049D01*
X133110584Y-65769148D01*
X133103965Y-65767365D01*
X133099109Y-65762521D01*
X133079775Y-65760852D01*
X133061046Y-65755810D01*
X133054827Y-65758700D01*
X133047995Y-65758111D01*
X133032115Y-65769258D01*
X133014524Y-65777436D01*
X133011618Y-65783647D01*
X133006005Y-65787588D01*
X132995025Y-65811208D01*
X132881133Y-66238303D01*
X132711882Y-65527447D01*
X132683646Y-65484614D01*
X132634484Y-65469950D01*
X132587398Y-65490319D01*
X132564420Y-65536188D01*
X132353745Y-65536188D01*
X132352210Y-65533689D01*
X132329305Y-65521287D01*
X132186448Y-65473668D01*
X132184813Y-65473712D01*
X132162731Y-65469819D01*
X131924636Y-65469819D01*
X131920422Y-65471352D01*
X131916061Y-65470311D01*
X131891095Y-65477737D01*
X131795857Y-65525356D01*
X131794731Y-65526545D01*
X131776365Y-65539405D01*
X131728746Y-65587024D01*
X131728055Y-65588505D01*
X131714697Y-65606516D01*
X131667078Y-65701754D01*
X131666565Y-65706207D01*
X131663683Y-65709643D01*
X131659160Y-65735295D01*
X131659160Y-65830533D01*
X131516303Y-65830533D01*
X131516303Y-65326962D01*
X136190111Y-65326962D01*
X136190111Y-66762676D01*
G37*
G36*
X135439836Y-63117990D02*
G01*
X135513949Y-63192103D01*
X135552442Y-63269090D01*
X135595826Y-63442624D01*
X135595826Y-63567013D01*
X135552442Y-63740547D01*
X135513948Y-63817534D01*
X135439836Y-63891647D01*
X135325323Y-63929819D01*
X135174398Y-63929819D01*
X135174398Y-63079819D01*
X135325323Y-63079819D01*
X135439836Y-63117990D01*
G37*
G36*
X135888683Y-64222676D02*
G01*
X132786303Y-64222676D01*
X132786303Y-63576247D01*
X132929160Y-63576247D01*
X132930345Y-63579504D01*
X132931399Y-63594437D01*
X132979018Y-63784913D01*
X132981006Y-63787857D01*
X132984697Y-63800264D01*
X133032316Y-63895502D01*
X133033502Y-63896625D01*
X133046365Y-63914994D01*
X133141603Y-64010233D01*
X133145667Y-64012128D01*
X133148014Y-64015948D01*
X133170919Y-64028351D01*
X133313775Y-64075970D01*
X133315410Y-64075925D01*
X133337493Y-64079819D01*
X133432731Y-64079819D01*
X133434269Y-64079258D01*
X133456448Y-64075970D01*
X133599305Y-64028351D01*
X133602816Y-64025563D01*
X133607285Y-64025173D01*
X133628622Y-64010232D01*
X133634035Y-64004819D01*
X133976779Y-64004819D01*
X133994326Y-64053028D01*
X134038755Y-64078680D01*
X134089279Y-64069771D01*
X134122256Y-64030471D01*
X134126779Y-64004819D01*
X134126779Y-63287235D01*
X134558089Y-64042030D01*
X134563382Y-64046511D01*
X134565754Y-64053028D01*
X134582491Y-64062691D01*
X134597242Y-64075181D01*
X134604176Y-64075211D01*
X134610183Y-64078680D01*
X134629216Y-64075323D01*
X134648544Y-64075410D01*
X134653877Y-64070975D01*
X134660707Y-64069771D01*
X134673131Y-64054964D01*
X134687991Y-64042608D01*
X134689225Y-64035784D01*
X134693684Y-64030471D01*
X134698207Y-64004819D01*
X135024398Y-64004819D01*
X135031061Y-64023127D01*
X135034446Y-64042319D01*
X135039630Y-64046669D01*
X135041945Y-64053028D01*
X135058818Y-64062770D01*
X135073746Y-64075296D01*
X135083488Y-64077013D01*
X135086374Y-64078680D01*
X135089656Y-64078101D01*
X135099398Y-64079819D01*
X135337493Y-64079819D01*
X135339031Y-64079258D01*
X135361210Y-64075970D01*
X135504067Y-64028351D01*
X135507579Y-64025563D01*
X135512046Y-64025173D01*
X135533383Y-64010233D01*
X135628622Y-63914993D01*
X135629313Y-63913510D01*
X135642670Y-63895502D01*
X135690289Y-63800264D01*
X135690695Y-63796735D01*
X135695968Y-63784913D01*
X135743587Y-63594437D01*
X135743226Y-63590988D01*
X135745826Y-63576247D01*
X135745826Y-63433390D01*
X135744640Y-63430132D01*
X135743587Y-63415200D01*
X135695968Y-63224724D01*
X135693979Y-63221779D01*
X135690289Y-63209373D01*
X135642670Y-63114135D01*
X135641483Y-63113011D01*
X135628621Y-63094643D01*
X135533383Y-62999405D01*
X135529319Y-62997510D01*
X135526972Y-62993689D01*
X135504067Y-62981287D01*
X135361210Y-62933668D01*
X135359575Y-62933712D01*
X135337493Y-62929819D01*
X135099398Y-62929819D01*
X135081089Y-62936482D01*
X135061898Y-62939867D01*
X135057547Y-62945051D01*
X135051189Y-62947366D01*
X135041446Y-62964239D01*
X135028921Y-62979167D01*
X135027203Y-62988909D01*
X135025537Y-62991795D01*
X135026115Y-62995077D01*
X135024398Y-63004819D01*
X135024398Y-64004819D01*
X134698207Y-64004819D01*
X134698207Y-63004819D01*
X134680660Y-62956610D01*
X134636231Y-62930958D01*
X134585707Y-62939867D01*
X134552730Y-62979167D01*
X134548207Y-63004819D01*
X134548207Y-63722402D01*
X134116897Y-62967609D01*
X134111604Y-62963127D01*
X134109232Y-62956610D01*
X134092492Y-62946945D01*
X134077744Y-62934457D01*
X134070809Y-62934426D01*
X134064803Y-62930958D01*
X134045769Y-62934314D01*
X134026442Y-62934228D01*
X134021108Y-62938662D01*
X134014279Y-62939867D01*
X134001854Y-62954673D01*
X133986995Y-62967030D01*
X133985760Y-62973853D01*
X133981302Y-62979167D01*
X133976779Y-63004819D01*
X133976779Y-64004819D01*
X133634035Y-64004819D01*
X133676240Y-63962613D01*
X133683158Y-63947775D01*
X133693684Y-63935232D01*
X133696527Y-63919104D01*
X133697921Y-63916116D01*
X133697398Y-63914165D01*
X133698207Y-63909580D01*
X133698207Y-63576247D01*
X133691543Y-63557938D01*
X133688159Y-63538747D01*
X133682974Y-63534396D01*
X133680660Y-63528038D01*
X133663786Y-63518295D01*
X133648859Y-63505770D01*
X133639116Y-63504052D01*
X133636231Y-63502386D01*
X133632948Y-63502964D01*
X133623207Y-63501247D01*
X133432731Y-63501247D01*
X133384522Y-63518794D01*
X133358870Y-63563223D01*
X133367779Y-63613747D01*
X133407079Y-63646724D01*
X133432731Y-63651247D01*
X133548207Y-63651247D01*
X133548207Y-63878514D01*
X133535074Y-63891647D01*
X133420561Y-63929819D01*
X133349663Y-63929819D01*
X133235150Y-63891648D01*
X133161037Y-63817534D01*
X133122543Y-63740547D01*
X133079160Y-63567013D01*
X133079160Y-63442624D01*
X133122543Y-63269090D01*
X133161037Y-63192103D01*
X133235150Y-63117990D01*
X133349663Y-63079819D01*
X133462645Y-63079819D01*
X133542047Y-63119520D01*
X133593013Y-63125385D01*
X133635826Y-63097119D01*
X133650453Y-63047944D01*
X133630050Y-63000873D01*
X133609129Y-62985356D01*
X133513891Y-62937737D01*
X133509437Y-62937224D01*
X133506002Y-62934342D01*
X133480350Y-62929819D01*
X133337493Y-62929819D01*
X133335955Y-62930378D01*
X133313775Y-62933668D01*
X133170919Y-62981287D01*
X133167408Y-62984073D01*
X133162940Y-62984464D01*
X133141603Y-62999405D01*
X133046365Y-63094643D01*
X133045674Y-63096124D01*
X133032316Y-63114135D01*
X132984697Y-63209373D01*
X132984290Y-63212901D01*
X132979018Y-63224724D01*
X132931399Y-63415200D01*
X132931759Y-63418648D01*
X132929160Y-63433390D01*
X132929160Y-63576247D01*
X132786303Y-63576247D01*
X132786303Y-62786962D01*
X135888683Y-62786962D01*
X135888683Y-64222676D01*
G37*
X148323493Y-106057819D02*
X148323493Y-106772104D01*
X148323493Y-106772104D02*
X148275874Y-106914961D01*
X148275874Y-106914961D02*
X148180636Y-107010200D01*
X148180636Y-107010200D02*
X148037779Y-107057819D01*
X148037779Y-107057819D02*
X147942541Y-107057819D01*
X149275874Y-107057819D02*
X148799684Y-107057819D01*
X148799684Y-107057819D02*
X148799684Y-106057819D01*
X150180636Y-106962580D02*
X150133017Y-107010200D01*
X150133017Y-107010200D02*
X149990160Y-107057819D01*
X149990160Y-107057819D02*
X149894922Y-107057819D01*
X149894922Y-107057819D02*
X149752065Y-107010200D01*
X149752065Y-107010200D02*
X149656827Y-106914961D01*
X149656827Y-106914961D02*
X149609208Y-106819723D01*
X149609208Y-106819723D02*
X149561589Y-106629247D01*
X149561589Y-106629247D02*
X149561589Y-106486390D01*
X149561589Y-106486390D02*
X149609208Y-106295914D01*
X149609208Y-106295914D02*
X149656827Y-106200676D01*
X149656827Y-106200676D02*
X149752065Y-106105438D01*
X149752065Y-106105438D02*
X149894922Y-106057819D01*
X149894922Y-106057819D02*
X149990160Y-106057819D01*
X149990160Y-106057819D02*
X150133017Y-106105438D01*
X150133017Y-106105438D02*
X150180636Y-106153057D01*
X150894922Y-106057819D02*
X150894922Y-106772104D01*
X150894922Y-106772104D02*
X150847303Y-106914961D01*
X150847303Y-106914961D02*
X150752065Y-107010200D01*
X150752065Y-107010200D02*
X150609208Y-107057819D01*
X150609208Y-107057819D02*
X150513970Y-107057819D01*
X151847303Y-107057819D02*
X151371113Y-107057819D01*
X151371113Y-107057819D02*
X151371113Y-106057819D01*
X152752065Y-106962580D02*
X152704446Y-107010200D01*
X152704446Y-107010200D02*
X152561589Y-107057819D01*
X152561589Y-107057819D02*
X152466351Y-107057819D01*
X152466351Y-107057819D02*
X152323494Y-107010200D01*
X152323494Y-107010200D02*
X152228256Y-106914961D01*
X152228256Y-106914961D02*
X152180637Y-106819723D01*
X152180637Y-106819723D02*
X152133018Y-106629247D01*
X152133018Y-106629247D02*
X152133018Y-106486390D01*
X152133018Y-106486390D02*
X152180637Y-106295914D01*
X152180637Y-106295914D02*
X152228256Y-106200676D01*
X152228256Y-106200676D02*
X152323494Y-106105438D01*
X152323494Y-106105438D02*
X152466351Y-106057819D01*
X152466351Y-106057819D02*
X152561589Y-106057819D01*
X152561589Y-106057819D02*
X152704446Y-106105438D01*
X152704446Y-106105438D02*
X152752065Y-106153057D01*
X153466351Y-106057819D02*
X153466351Y-106772104D01*
X153466351Y-106772104D02*
X153418732Y-106914961D01*
X153418732Y-106914961D02*
X153323494Y-107010200D01*
X153323494Y-107010200D02*
X153180637Y-107057819D01*
X153180637Y-107057819D02*
X153085399Y-107057819D01*
X154418732Y-107057819D02*
X153942542Y-107057819D01*
X153942542Y-107057819D02*
X153942542Y-106057819D01*
X155323494Y-106962580D02*
X155275875Y-107010200D01*
X155275875Y-107010200D02*
X155133018Y-107057819D01*
X155133018Y-107057819D02*
X155037780Y-107057819D01*
X155037780Y-107057819D02*
X154894923Y-107010200D01*
X154894923Y-107010200D02*
X154799685Y-106914961D01*
X154799685Y-106914961D02*
X154752066Y-106819723D01*
X154752066Y-106819723D02*
X154704447Y-106629247D01*
X154704447Y-106629247D02*
X154704447Y-106486390D01*
X154704447Y-106486390D02*
X154752066Y-106295914D01*
X154752066Y-106295914D02*
X154799685Y-106200676D01*
X154799685Y-106200676D02*
X154894923Y-106105438D01*
X154894923Y-106105438D02*
X155037780Y-106057819D01*
X155037780Y-106057819D02*
X155133018Y-106057819D01*
X155133018Y-106057819D02*
X155275875Y-106105438D01*
X155275875Y-106105438D02*
X155323494Y-106153057D01*
X156037780Y-106057819D02*
X156037780Y-106772104D01*
X156037780Y-106772104D02*
X155990161Y-106914961D01*
X155990161Y-106914961D02*
X155894923Y-107010200D01*
X155894923Y-107010200D02*
X155752066Y-107057819D01*
X155752066Y-107057819D02*
X155656828Y-107057819D01*
X156990161Y-107057819D02*
X156513971Y-107057819D01*
X156513971Y-107057819D02*
X156513971Y-106057819D01*
X157894923Y-106962580D02*
X157847304Y-107010200D01*
X157847304Y-107010200D02*
X157704447Y-107057819D01*
X157704447Y-107057819D02*
X157609209Y-107057819D01*
X157609209Y-107057819D02*
X157466352Y-107010200D01*
X157466352Y-107010200D02*
X157371114Y-106914961D01*
X157371114Y-106914961D02*
X157323495Y-106819723D01*
X157323495Y-106819723D02*
X157275876Y-106629247D01*
X157275876Y-106629247D02*
X157275876Y-106486390D01*
X157275876Y-106486390D02*
X157323495Y-106295914D01*
X157323495Y-106295914D02*
X157371114Y-106200676D01*
X157371114Y-106200676D02*
X157466352Y-106105438D01*
X157466352Y-106105438D02*
X157609209Y-106057819D01*
X157609209Y-106057819D02*
X157704447Y-106057819D01*
X157704447Y-106057819D02*
X157847304Y-106105438D01*
X157847304Y-106105438D02*
X157894923Y-106153057D01*
G36*
X136475540Y-69302676D02*
G01*
X131516303Y-69302676D01*
X131516303Y-68370533D01*
X131659160Y-68370533D01*
X131660693Y-68374746D01*
X131659652Y-68379107D01*
X131667078Y-68404074D01*
X131714697Y-68499312D01*
X131715886Y-68500437D01*
X131728746Y-68518804D01*
X131776365Y-68566423D01*
X131777846Y-68567114D01*
X131795857Y-68580472D01*
X131891095Y-68628091D01*
X131894623Y-68628497D01*
X131906446Y-68633770D01*
X132088936Y-68679392D01*
X132165923Y-68717886D01*
X132196330Y-68748293D01*
X132230588Y-68816809D01*
X132230588Y-68876637D01*
X132196329Y-68945153D01*
X132165922Y-68975561D01*
X132097407Y-69009819D01*
X131889187Y-69009819D01*
X131757877Y-68966049D01*
X131706593Y-68967450D01*
X131668208Y-69001487D01*
X131660683Y-69052236D01*
X131687538Y-69095948D01*
X131710443Y-69108351D01*
X131853299Y-69155970D01*
X131854934Y-69155925D01*
X131877017Y-69159819D01*
X132115112Y-69159819D01*
X132119325Y-69158285D01*
X132123686Y-69159327D01*
X132148653Y-69151901D01*
X132243891Y-69104282D01*
X132245015Y-69103094D01*
X132263384Y-69090232D01*
X132311002Y-69042613D01*
X132311692Y-69041131D01*
X132325051Y-69023121D01*
X132372670Y-68927883D01*
X132373182Y-68923429D01*
X132376065Y-68919994D01*
X132380588Y-68894342D01*
X132380588Y-68799104D01*
X132379054Y-68794890D01*
X132380096Y-68790529D01*
X132372670Y-68765563D01*
X132325051Y-68670325D01*
X132323861Y-68669199D01*
X132311002Y-68650833D01*
X132263383Y-68603214D01*
X132261901Y-68602523D01*
X132243891Y-68589165D01*
X132148653Y-68541546D01*
X132145124Y-68541139D01*
X132133302Y-68535867D01*
X131950812Y-68490244D01*
X131873825Y-68451751D01*
X131843418Y-68421344D01*
X131809160Y-68352828D01*
X131809160Y-68293000D01*
X131843418Y-68224484D01*
X131873825Y-68194077D01*
X131942341Y-68159819D01*
X132150561Y-68159819D01*
X132281870Y-68203589D01*
X132333154Y-68202188D01*
X132371540Y-68168150D01*
X132379065Y-68117402D01*
X132353745Y-68076188D01*
X132564420Y-68076188D01*
X132565962Y-68102191D01*
X132804057Y-69102191D01*
X132808386Y-69108759D01*
X132809082Y-69116597D01*
X132822142Y-69129626D01*
X132832293Y-69145024D01*
X132839831Y-69147272D01*
X132845402Y-69152830D01*
X132863778Y-69154415D01*
X132881455Y-69159688D01*
X132888677Y-69156563D01*
X132896515Y-69157240D01*
X132911611Y-69146642D01*
X132928541Y-69139319D01*
X132932064Y-69132284D01*
X132938505Y-69127764D01*
X132949485Y-69104144D01*
X133067492Y-68661613D01*
X133185501Y-69104144D01*
X133190006Y-69110595D01*
X133190912Y-69118410D01*
X133204317Y-69131083D01*
X133214878Y-69146204D01*
X133222472Y-69148248D01*
X133228191Y-69153655D01*
X133246604Y-69154746D01*
X133264416Y-69159542D01*
X133271552Y-69156224D01*
X133279405Y-69156690D01*
X133294208Y-69145693D01*
X133310939Y-69137916D01*
X133314273Y-69130787D01*
X133320588Y-69126097D01*
X133330929Y-69102191D01*
X133437106Y-68656247D01*
X133754398Y-68656247D01*
X133755583Y-68659504D01*
X133756637Y-68674437D01*
X133804256Y-68864913D01*
X133806244Y-68867857D01*
X133809935Y-68880264D01*
X133857554Y-68975502D01*
X133858740Y-68976625D01*
X133871603Y-68994994D01*
X133966841Y-69090233D01*
X133970905Y-69092128D01*
X133973252Y-69095948D01*
X133996157Y-69108351D01*
X134139013Y-69155970D01*
X134140648Y-69155925D01*
X134162731Y-69159819D01*
X134257969Y-69159819D01*
X134259507Y-69159258D01*
X134281686Y-69155970D01*
X134424543Y-69108351D01*
X134428054Y-69105563D01*
X134432523Y-69105173D01*
X134453860Y-69090232D01*
X134459273Y-69084819D01*
X134802017Y-69084819D01*
X134808680Y-69103127D01*
X134812065Y-69122319D01*
X134817249Y-69126669D01*
X134819564Y-69133028D01*
X134836437Y-69142770D01*
X134851365Y-69155296D01*
X134861107Y-69157013D01*
X134863993Y-69158680D01*
X134867275Y-69158101D01*
X134877017Y-69159819D01*
X135353207Y-69159819D01*
X135401416Y-69142272D01*
X135427068Y-69097843D01*
X135424771Y-69084819D01*
X135611541Y-69084819D01*
X135629088Y-69133028D01*
X135673517Y-69158680D01*
X135724041Y-69149771D01*
X135757018Y-69110471D01*
X135761541Y-69084819D01*
X135761541Y-68687313D01*
X135821283Y-68627570D01*
X136197969Y-69129819D01*
X136240932Y-69157858D01*
X136291866Y-69151722D01*
X136326940Y-69114281D01*
X136329742Y-69063055D01*
X136317969Y-69039819D01*
X135928426Y-68520427D01*
X136311002Y-68137852D01*
X136332683Y-68091356D01*
X136319406Y-68041801D01*
X136277380Y-68012375D01*
X136226273Y-68016846D01*
X136204936Y-68031786D01*
X135761541Y-68475181D01*
X135761541Y-68084819D01*
X135743994Y-68036610D01*
X135699565Y-68010958D01*
X135649041Y-68019867D01*
X135616064Y-68059167D01*
X135611541Y-68084819D01*
X135611541Y-69084819D01*
X135424771Y-69084819D01*
X135418159Y-69047319D01*
X135378859Y-69014342D01*
X135353207Y-69009819D01*
X134952017Y-69009819D01*
X134952017Y-68084819D01*
X134934470Y-68036610D01*
X134890041Y-68010958D01*
X134839517Y-68019867D01*
X134806540Y-68059167D01*
X134802017Y-68084819D01*
X134802017Y-69084819D01*
X134459273Y-69084819D01*
X134501478Y-69042613D01*
X134523159Y-68996116D01*
X134509881Y-68946561D01*
X134467856Y-68917135D01*
X134416748Y-68921607D01*
X134395411Y-68936548D01*
X134360312Y-68971647D01*
X134245799Y-69009819D01*
X134174901Y-69009819D01*
X134060388Y-68971648D01*
X133986275Y-68897534D01*
X133947781Y-68820547D01*
X133904398Y-68647013D01*
X133904398Y-68522624D01*
X133947781Y-68349090D01*
X133986275Y-68272103D01*
X134060388Y-68197990D01*
X134174901Y-68159819D01*
X134245799Y-68159819D01*
X134360312Y-68197990D01*
X134395412Y-68233090D01*
X134441908Y-68254771D01*
X134491463Y-68241494D01*
X134520889Y-68199468D01*
X134516418Y-68148361D01*
X134501478Y-68127024D01*
X134453859Y-68079405D01*
X134449795Y-68077510D01*
X134447448Y-68073689D01*
X134424543Y-68061287D01*
X134281686Y-68013668D01*
X134280051Y-68013712D01*
X134257969Y-68009819D01*
X134162731Y-68009819D01*
X134161193Y-68010378D01*
X134139013Y-68013668D01*
X133996157Y-68061287D01*
X133992646Y-68064073D01*
X133988178Y-68064464D01*
X133966841Y-68079405D01*
X133871603Y-68174643D01*
X133870912Y-68176124D01*
X133857554Y-68194135D01*
X133809935Y-68289373D01*
X133809528Y-68292901D01*
X133804256Y-68304724D01*
X133756637Y-68495200D01*
X133756997Y-68498648D01*
X133754398Y-68513390D01*
X133754398Y-68656247D01*
X133437106Y-68656247D01*
X133569025Y-68102191D01*
X133563122Y-68051228D01*
X133525843Y-68015983D01*
X133474629Y-68012948D01*
X133433446Y-68043541D01*
X133423105Y-68067448D01*
X133253852Y-68778303D01*
X133139961Y-68351208D01*
X133136033Y-68345585D01*
X133135428Y-68338755D01*
X133121690Y-68325049D01*
X133110584Y-68309148D01*
X133103965Y-68307365D01*
X133099109Y-68302521D01*
X133079775Y-68300852D01*
X133061046Y-68295810D01*
X133054827Y-68298700D01*
X133047995Y-68298111D01*
X133032115Y-68309258D01*
X133014524Y-68317436D01*
X133011618Y-68323647D01*
X133006005Y-68327588D01*
X132995025Y-68351208D01*
X132881133Y-68778303D01*
X132711882Y-68067447D01*
X132683646Y-68024614D01*
X132634484Y-68009950D01*
X132587398Y-68030319D01*
X132564420Y-68076188D01*
X132353745Y-68076188D01*
X132352210Y-68073689D01*
X132329305Y-68061287D01*
X132186448Y-68013668D01*
X132184813Y-68013712D01*
X132162731Y-68009819D01*
X131924636Y-68009819D01*
X131920422Y-68011352D01*
X131916061Y-68010311D01*
X131891095Y-68017737D01*
X131795857Y-68065356D01*
X131794731Y-68066545D01*
X131776365Y-68079405D01*
X131728746Y-68127024D01*
X131728055Y-68128505D01*
X131714697Y-68146516D01*
X131667078Y-68241754D01*
X131666565Y-68246207D01*
X131663683Y-68249643D01*
X131659160Y-68275295D01*
X131659160Y-68370533D01*
X131516303Y-68370533D01*
X131516303Y-67866962D01*
X136475540Y-67866962D01*
X136475540Y-69302676D01*
G37*
D11*
X177915673Y-117840419D02*
X177915673Y-116840419D01*
X177915673Y-116840419D02*
X178153768Y-116840419D01*
X178153768Y-116840419D02*
X178296625Y-116888038D01*
X178296625Y-116888038D02*
X178391863Y-116983276D01*
X178391863Y-116983276D02*
X178439482Y-117078514D01*
X178439482Y-117078514D02*
X178487101Y-117268990D01*
X178487101Y-117268990D02*
X178487101Y-117411847D01*
X178487101Y-117411847D02*
X178439482Y-117602323D01*
X178439482Y-117602323D02*
X178391863Y-117697561D01*
X178391863Y-117697561D02*
X178296625Y-117792800D01*
X178296625Y-117792800D02*
X178153768Y-117840419D01*
X178153768Y-117840419D02*
X177915673Y-117840419D01*
X178915673Y-117840419D02*
X178915673Y-117173752D01*
X178915673Y-116840419D02*
X178868054Y-116888038D01*
X178868054Y-116888038D02*
X178915673Y-116935657D01*
X178915673Y-116935657D02*
X178963292Y-116888038D01*
X178963292Y-116888038D02*
X178915673Y-116840419D01*
X178915673Y-116840419D02*
X178915673Y-116935657D01*
X179820434Y-117173752D02*
X179820434Y-117983276D01*
X179820434Y-117983276D02*
X179772815Y-118078514D01*
X179772815Y-118078514D02*
X179725196Y-118126133D01*
X179725196Y-118126133D02*
X179629958Y-118173752D01*
X179629958Y-118173752D02*
X179487101Y-118173752D01*
X179487101Y-118173752D02*
X179391863Y-118126133D01*
X179820434Y-117792800D02*
X179725196Y-117840419D01*
X179725196Y-117840419D02*
X179534720Y-117840419D01*
X179534720Y-117840419D02*
X179439482Y-117792800D01*
X179439482Y-117792800D02*
X179391863Y-117745180D01*
X179391863Y-117745180D02*
X179344244Y-117649942D01*
X179344244Y-117649942D02*
X179344244Y-117364228D01*
X179344244Y-117364228D02*
X179391863Y-117268990D01*
X179391863Y-117268990D02*
X179439482Y-117221371D01*
X179439482Y-117221371D02*
X179534720Y-117173752D01*
X179534720Y-117173752D02*
X179725196Y-117173752D01*
X179725196Y-117173752D02*
X179820434Y-117221371D01*
X180296625Y-117840419D02*
X180296625Y-117173752D01*
X180296625Y-116840419D02*
X180249006Y-116888038D01*
X180249006Y-116888038D02*
X180296625Y-116935657D01*
X180296625Y-116935657D02*
X180344244Y-116888038D01*
X180344244Y-116888038D02*
X180296625Y-116840419D01*
X180296625Y-116840419D02*
X180296625Y-116935657D01*
X180629958Y-117173752D02*
X181010910Y-117173752D01*
X180772815Y-116840419D02*
X180772815Y-117697561D01*
X180772815Y-117697561D02*
X180820434Y-117792800D01*
X180820434Y-117792800D02*
X180915672Y-117840419D01*
X180915672Y-117840419D02*
X181010910Y-117840419D01*
X181772815Y-117840419D02*
X181772815Y-117316609D01*
X181772815Y-117316609D02*
X181725196Y-117221371D01*
X181725196Y-117221371D02*
X181629958Y-117173752D01*
X181629958Y-117173752D02*
X181439482Y-117173752D01*
X181439482Y-117173752D02*
X181344244Y-117221371D01*
X181772815Y-117792800D02*
X181677577Y-117840419D01*
X181677577Y-117840419D02*
X181439482Y-117840419D01*
X181439482Y-117840419D02*
X181344244Y-117792800D01*
X181344244Y-117792800D02*
X181296625Y-117697561D01*
X181296625Y-117697561D02*
X181296625Y-117602323D01*
X181296625Y-117602323D02*
X181344244Y-117507085D01*
X181344244Y-117507085D02*
X181439482Y-117459466D01*
X181439482Y-117459466D02*
X181677577Y-117459466D01*
X181677577Y-117459466D02*
X181772815Y-117411847D01*
X182391863Y-117840419D02*
X182296625Y-117792800D01*
X182296625Y-117792800D02*
X182249006Y-117697561D01*
X182249006Y-117697561D02*
X182249006Y-116840419D01*
X184106149Y-117745180D02*
X184058530Y-117792800D01*
X184058530Y-117792800D02*
X183915673Y-117840419D01*
X183915673Y-117840419D02*
X183820435Y-117840419D01*
X183820435Y-117840419D02*
X183677578Y-117792800D01*
X183677578Y-117792800D02*
X183582340Y-117697561D01*
X183582340Y-117697561D02*
X183534721Y-117602323D01*
X183534721Y-117602323D02*
X183487102Y-117411847D01*
X183487102Y-117411847D02*
X183487102Y-117268990D01*
X183487102Y-117268990D02*
X183534721Y-117078514D01*
X183534721Y-117078514D02*
X183582340Y-116983276D01*
X183582340Y-116983276D02*
X183677578Y-116888038D01*
X183677578Y-116888038D02*
X183820435Y-116840419D01*
X183820435Y-116840419D02*
X183915673Y-116840419D01*
X183915673Y-116840419D02*
X184058530Y-116888038D01*
X184058530Y-116888038D02*
X184106149Y-116935657D01*
X184677578Y-117840419D02*
X184582340Y-117792800D01*
X184582340Y-117792800D02*
X184534721Y-117697561D01*
X184534721Y-117697561D02*
X184534721Y-116840419D01*
X185201388Y-117840419D02*
X185106150Y-117792800D01*
X185106150Y-117792800D02*
X185058531Y-117745180D01*
X185058531Y-117745180D02*
X185010912Y-117649942D01*
X185010912Y-117649942D02*
X185010912Y-117364228D01*
X185010912Y-117364228D02*
X185058531Y-117268990D01*
X185058531Y-117268990D02*
X185106150Y-117221371D01*
X185106150Y-117221371D02*
X185201388Y-117173752D01*
X185201388Y-117173752D02*
X185344245Y-117173752D01*
X185344245Y-117173752D02*
X185439483Y-117221371D01*
X185439483Y-117221371D02*
X185487102Y-117268990D01*
X185487102Y-117268990D02*
X185534721Y-117364228D01*
X185534721Y-117364228D02*
X185534721Y-117649942D01*
X185534721Y-117649942D02*
X185487102Y-117745180D01*
X185487102Y-117745180D02*
X185439483Y-117792800D01*
X185439483Y-117792800D02*
X185344245Y-117840419D01*
X185344245Y-117840419D02*
X185201388Y-117840419D01*
X186391864Y-117792800D02*
X186296626Y-117840419D01*
X186296626Y-117840419D02*
X186106150Y-117840419D01*
X186106150Y-117840419D02*
X186010912Y-117792800D01*
X186010912Y-117792800D02*
X185963293Y-117745180D01*
X185963293Y-117745180D02*
X185915674Y-117649942D01*
X185915674Y-117649942D02*
X185915674Y-117364228D01*
X185915674Y-117364228D02*
X185963293Y-117268990D01*
X185963293Y-117268990D02*
X186010912Y-117221371D01*
X186010912Y-117221371D02*
X186106150Y-117173752D01*
X186106150Y-117173752D02*
X186296626Y-117173752D01*
X186296626Y-117173752D02*
X186391864Y-117221371D01*
X186820436Y-117840419D02*
X186820436Y-116840419D01*
X186915674Y-117459466D02*
X187201388Y-117840419D01*
X187201388Y-117173752D02*
X186820436Y-117554704D01*
X178487101Y-119450419D02*
X178153768Y-118974228D01*
X177915673Y-119450419D02*
X177915673Y-118450419D01*
X177915673Y-118450419D02*
X178296625Y-118450419D01*
X178296625Y-118450419D02*
X178391863Y-118498038D01*
X178391863Y-118498038D02*
X178439482Y-118545657D01*
X178439482Y-118545657D02*
X178487101Y-118640895D01*
X178487101Y-118640895D02*
X178487101Y-118783752D01*
X178487101Y-118783752D02*
X178439482Y-118878990D01*
X178439482Y-118878990D02*
X178391863Y-118926609D01*
X178391863Y-118926609D02*
X178296625Y-118974228D01*
X178296625Y-118974228D02*
X177915673Y-118974228D01*
X178915673Y-119450419D02*
X178915673Y-118783752D01*
X178915673Y-118450419D02*
X178868054Y-118498038D01*
X178868054Y-118498038D02*
X178915673Y-118545657D01*
X178915673Y-118545657D02*
X178963292Y-118498038D01*
X178963292Y-118498038D02*
X178915673Y-118450419D01*
X178915673Y-118450419D02*
X178915673Y-118545657D01*
X179820434Y-119402800D02*
X179725196Y-119450419D01*
X179725196Y-119450419D02*
X179534720Y-119450419D01*
X179534720Y-119450419D02*
X179439482Y-119402800D01*
X179439482Y-119402800D02*
X179391863Y-119355180D01*
X179391863Y-119355180D02*
X179344244Y-119259942D01*
X179344244Y-119259942D02*
X179344244Y-118974228D01*
X179344244Y-118974228D02*
X179391863Y-118878990D01*
X179391863Y-118878990D02*
X179439482Y-118831371D01*
X179439482Y-118831371D02*
X179534720Y-118783752D01*
X179534720Y-118783752D02*
X179725196Y-118783752D01*
X179725196Y-118783752D02*
X179820434Y-118831371D01*
X180249006Y-119450419D02*
X180249006Y-118450419D01*
X180677577Y-119450419D02*
X180677577Y-118926609D01*
X180677577Y-118926609D02*
X180629958Y-118831371D01*
X180629958Y-118831371D02*
X180534720Y-118783752D01*
X180534720Y-118783752D02*
X180391863Y-118783752D01*
X180391863Y-118783752D02*
X180296625Y-118831371D01*
X180296625Y-118831371D02*
X180249006Y-118878990D01*
X181153768Y-119450419D02*
X181153768Y-118783752D01*
X181153768Y-118450419D02*
X181106149Y-118498038D01*
X181106149Y-118498038D02*
X181153768Y-118545657D01*
X181153768Y-118545657D02*
X181201387Y-118498038D01*
X181201387Y-118498038D02*
X181153768Y-118450419D01*
X181153768Y-118450419D02*
X181153768Y-118545657D01*
X182582339Y-118450419D02*
X182677577Y-118450419D01*
X182677577Y-118450419D02*
X182772815Y-118498038D01*
X182772815Y-118498038D02*
X182820434Y-118545657D01*
X182820434Y-118545657D02*
X182868053Y-118640895D01*
X182868053Y-118640895D02*
X182915672Y-118831371D01*
X182915672Y-118831371D02*
X182915672Y-119069466D01*
X182915672Y-119069466D02*
X182868053Y-119259942D01*
X182868053Y-119259942D02*
X182820434Y-119355180D01*
X182820434Y-119355180D02*
X182772815Y-119402800D01*
X182772815Y-119402800D02*
X182677577Y-119450419D01*
X182677577Y-119450419D02*
X182582339Y-119450419D01*
X182582339Y-119450419D02*
X182487101Y-119402800D01*
X182487101Y-119402800D02*
X182439482Y-119355180D01*
X182439482Y-119355180D02*
X182391863Y-119259942D01*
X182391863Y-119259942D02*
X182344244Y-119069466D01*
X182344244Y-119069466D02*
X182344244Y-118831371D01*
X182344244Y-118831371D02*
X182391863Y-118640895D01*
X182391863Y-118640895D02*
X182439482Y-118545657D01*
X182439482Y-118545657D02*
X182487101Y-118498038D01*
X182487101Y-118498038D02*
X182582339Y-118450419D01*
X183868053Y-119450419D02*
X183296625Y-119450419D01*
X183582339Y-119450419D02*
X183582339Y-118450419D01*
X183582339Y-118450419D02*
X183487101Y-118593276D01*
X183487101Y-118593276D02*
X183391863Y-118688514D01*
X183391863Y-118688514D02*
X183296625Y-118736133D01*
X184296625Y-119355180D02*
X184344244Y-119402800D01*
X184344244Y-119402800D02*
X184296625Y-119450419D01*
X184296625Y-119450419D02*
X184249006Y-119402800D01*
X184249006Y-119402800D02*
X184296625Y-119355180D01*
X184296625Y-119355180D02*
X184296625Y-119450419D01*
X184725196Y-118545657D02*
X184772815Y-118498038D01*
X184772815Y-118498038D02*
X184868053Y-118450419D01*
X184868053Y-118450419D02*
X185106148Y-118450419D01*
X185106148Y-118450419D02*
X185201386Y-118498038D01*
X185201386Y-118498038D02*
X185249005Y-118545657D01*
X185249005Y-118545657D02*
X185296624Y-118640895D01*
X185296624Y-118640895D02*
X185296624Y-118736133D01*
X185296624Y-118736133D02*
X185249005Y-118878990D01*
X185249005Y-118878990D02*
X184677577Y-119450419D01*
X184677577Y-119450419D02*
X185296624Y-119450419D01*
X185915672Y-118450419D02*
X186010910Y-118450419D01*
X186010910Y-118450419D02*
X186106148Y-118498038D01*
X186106148Y-118498038D02*
X186153767Y-118545657D01*
X186153767Y-118545657D02*
X186201386Y-118640895D01*
X186201386Y-118640895D02*
X186249005Y-118831371D01*
X186249005Y-118831371D02*
X186249005Y-119069466D01*
X186249005Y-119069466D02*
X186201386Y-119259942D01*
X186201386Y-119259942D02*
X186153767Y-119355180D01*
X186153767Y-119355180D02*
X186106148Y-119402800D01*
X186106148Y-119402800D02*
X186010910Y-119450419D01*
X186010910Y-119450419D02*
X185915672Y-119450419D01*
X185915672Y-119450419D02*
X185820434Y-119402800D01*
X185820434Y-119402800D02*
X185772815Y-119355180D01*
X185772815Y-119355180D02*
X185725196Y-119259942D01*
X185725196Y-119259942D02*
X185677577Y-119069466D01*
X185677577Y-119069466D02*
X185677577Y-118831371D01*
X185677577Y-118831371D02*
X185725196Y-118640895D01*
X185725196Y-118640895D02*
X185772815Y-118545657D01*
X185772815Y-118545657D02*
X185820434Y-118498038D01*
X185820434Y-118498038D02*
X185915672Y-118450419D01*
X186629958Y-118545657D02*
X186677577Y-118498038D01*
X186677577Y-118498038D02*
X186772815Y-118450419D01*
X186772815Y-118450419D02*
X187010910Y-118450419D01*
X187010910Y-118450419D02*
X187106148Y-118498038D01*
X187106148Y-118498038D02*
X187153767Y-118545657D01*
X187153767Y-118545657D02*
X187201386Y-118640895D01*
X187201386Y-118640895D02*
X187201386Y-118736133D01*
X187201386Y-118736133D02*
X187153767Y-118878990D01*
X187153767Y-118878990D02*
X186582339Y-119450419D01*
X186582339Y-119450419D02*
X187201386Y-119450419D01*
X188058529Y-118783752D02*
X188058529Y-119450419D01*
X187820434Y-118402800D02*
X187582339Y-119117085D01*
X187582339Y-119117085D02*
X188201386Y-119117085D01*
D10*
X192642319Y-89776204D02*
X193451842Y-89776204D01*
X193451842Y-89776204D02*
X193547080Y-89728585D01*
X193547080Y-89728585D02*
X193594700Y-89680966D01*
X193594700Y-89680966D02*
X193642319Y-89585728D01*
X193642319Y-89585728D02*
X193642319Y-89395252D01*
X193642319Y-89395252D02*
X193594700Y-89300014D01*
X193594700Y-89300014D02*
X193547080Y-89252395D01*
X193547080Y-89252395D02*
X193451842Y-89204776D01*
X193451842Y-89204776D02*
X192642319Y-89204776D01*
X192975652Y-88300014D02*
X193642319Y-88300014D01*
X192594700Y-88538109D02*
X193308985Y-88776204D01*
X193308985Y-88776204D02*
X193308985Y-88157157D01*
X231441666Y-97244819D02*
X231441666Y-97959104D01*
X231441666Y-97959104D02*
X231394047Y-98101961D01*
X231394047Y-98101961D02*
X231298809Y-98197200D01*
X231298809Y-98197200D02*
X231155952Y-98244819D01*
X231155952Y-98244819D02*
X231060714Y-98244819D01*
X232441666Y-98244819D02*
X231870238Y-98244819D01*
X232155952Y-98244819D02*
X232155952Y-97244819D01*
X232155952Y-97244819D02*
X232060714Y-97387676D01*
X232060714Y-97387676D02*
X231965476Y-97482914D01*
X231965476Y-97482914D02*
X231870238Y-97530533D01*
X209849580Y-117276666D02*
X209897200Y-117324285D01*
X209897200Y-117324285D02*
X209944819Y-117467142D01*
X209944819Y-117467142D02*
X209944819Y-117562380D01*
X209944819Y-117562380D02*
X209897200Y-117705237D01*
X209897200Y-117705237D02*
X209801961Y-117800475D01*
X209801961Y-117800475D02*
X209706723Y-117848094D01*
X209706723Y-117848094D02*
X209516247Y-117895713D01*
X209516247Y-117895713D02*
X209373390Y-117895713D01*
X209373390Y-117895713D02*
X209182914Y-117848094D01*
X209182914Y-117848094D02*
X209087676Y-117800475D01*
X209087676Y-117800475D02*
X208992438Y-117705237D01*
X208992438Y-117705237D02*
X208944819Y-117562380D01*
X208944819Y-117562380D02*
X208944819Y-117467142D01*
X208944819Y-117467142D02*
X208992438Y-117324285D01*
X208992438Y-117324285D02*
X209040057Y-117276666D01*
X209373390Y-116705237D02*
X209325771Y-116800475D01*
X209325771Y-116800475D02*
X209278152Y-116848094D01*
X209278152Y-116848094D02*
X209182914Y-116895713D01*
X209182914Y-116895713D02*
X209135295Y-116895713D01*
X209135295Y-116895713D02*
X209040057Y-116848094D01*
X209040057Y-116848094D02*
X208992438Y-116800475D01*
X208992438Y-116800475D02*
X208944819Y-116705237D01*
X208944819Y-116705237D02*
X208944819Y-116514761D01*
X208944819Y-116514761D02*
X208992438Y-116419523D01*
X208992438Y-116419523D02*
X209040057Y-116371904D01*
X209040057Y-116371904D02*
X209135295Y-116324285D01*
X209135295Y-116324285D02*
X209182914Y-116324285D01*
X209182914Y-116324285D02*
X209278152Y-116371904D01*
X209278152Y-116371904D02*
X209325771Y-116419523D01*
X209325771Y-116419523D02*
X209373390Y-116514761D01*
X209373390Y-116514761D02*
X209373390Y-116705237D01*
X209373390Y-116705237D02*
X209421009Y-116800475D01*
X209421009Y-116800475D02*
X209468628Y-116848094D01*
X209468628Y-116848094D02*
X209563866Y-116895713D01*
X209563866Y-116895713D02*
X209754342Y-116895713D01*
X209754342Y-116895713D02*
X209849580Y-116848094D01*
X209849580Y-116848094D02*
X209897200Y-116800475D01*
X209897200Y-116800475D02*
X209944819Y-116705237D01*
X209944819Y-116705237D02*
X209944819Y-116514761D01*
X209944819Y-116514761D02*
X209897200Y-116419523D01*
X209897200Y-116419523D02*
X209849580Y-116371904D01*
X209849580Y-116371904D02*
X209754342Y-116324285D01*
X209754342Y-116324285D02*
X209563866Y-116324285D01*
X209563866Y-116324285D02*
X209468628Y-116371904D01*
X209468628Y-116371904D02*
X209421009Y-116419523D01*
X209421009Y-116419523D02*
X209373390Y-116514761D01*
X139366666Y-70364819D02*
X139366666Y-71079104D01*
X139366666Y-71079104D02*
X139319047Y-71221961D01*
X139319047Y-71221961D02*
X139223809Y-71317200D01*
X139223809Y-71317200D02*
X139080952Y-71364819D01*
X139080952Y-71364819D02*
X138985714Y-71364819D01*
X139795238Y-70460057D02*
X139842857Y-70412438D01*
X139842857Y-70412438D02*
X139938095Y-70364819D01*
X139938095Y-70364819D02*
X140176190Y-70364819D01*
X140176190Y-70364819D02*
X140271428Y-70412438D01*
X140271428Y-70412438D02*
X140319047Y-70460057D01*
X140319047Y-70460057D02*
X140366666Y-70555295D01*
X140366666Y-70555295D02*
X140366666Y-70650533D01*
X140366666Y-70650533D02*
X140319047Y-70793390D01*
X140319047Y-70793390D02*
X139747619Y-71364819D01*
X139747619Y-71364819D02*
X140366666Y-71364819D01*
X145883333Y-87409580D02*
X145835714Y-87457200D01*
X145835714Y-87457200D02*
X145692857Y-87504819D01*
X145692857Y-87504819D02*
X145597619Y-87504819D01*
X145597619Y-87504819D02*
X145454762Y-87457200D01*
X145454762Y-87457200D02*
X145359524Y-87361961D01*
X145359524Y-87361961D02*
X145311905Y-87266723D01*
X145311905Y-87266723D02*
X145264286Y-87076247D01*
X145264286Y-87076247D02*
X145264286Y-86933390D01*
X145264286Y-86933390D02*
X145311905Y-86742914D01*
X145311905Y-86742914D02*
X145359524Y-86647676D01*
X145359524Y-86647676D02*
X145454762Y-86552438D01*
X145454762Y-86552438D02*
X145597619Y-86504819D01*
X145597619Y-86504819D02*
X145692857Y-86504819D01*
X145692857Y-86504819D02*
X145835714Y-86552438D01*
X145835714Y-86552438D02*
X145883333Y-86600057D01*
X146740476Y-86838152D02*
X146740476Y-87504819D01*
X146502381Y-86457200D02*
X146264286Y-87171485D01*
X146264286Y-87171485D02*
X146883333Y-87171485D01*
X160852142Y-79597080D02*
X160804523Y-79644700D01*
X160804523Y-79644700D02*
X160661666Y-79692319D01*
X160661666Y-79692319D02*
X160566428Y-79692319D01*
X160566428Y-79692319D02*
X160423571Y-79644700D01*
X160423571Y-79644700D02*
X160328333Y-79549461D01*
X160328333Y-79549461D02*
X160280714Y-79454223D01*
X160280714Y-79454223D02*
X160233095Y-79263747D01*
X160233095Y-79263747D02*
X160233095Y-79120890D01*
X160233095Y-79120890D02*
X160280714Y-78930414D01*
X160280714Y-78930414D02*
X160328333Y-78835176D01*
X160328333Y-78835176D02*
X160423571Y-78739938D01*
X160423571Y-78739938D02*
X160566428Y-78692319D01*
X160566428Y-78692319D02*
X160661666Y-78692319D01*
X160661666Y-78692319D02*
X160804523Y-78739938D01*
X160804523Y-78739938D02*
X160852142Y-78787557D01*
X161804523Y-79692319D02*
X161233095Y-79692319D01*
X161518809Y-79692319D02*
X161518809Y-78692319D01*
X161518809Y-78692319D02*
X161423571Y-78835176D01*
X161423571Y-78835176D02*
X161328333Y-78930414D01*
X161328333Y-78930414D02*
X161233095Y-78978033D01*
X162423571Y-78692319D02*
X162518809Y-78692319D01*
X162518809Y-78692319D02*
X162614047Y-78739938D01*
X162614047Y-78739938D02*
X162661666Y-78787557D01*
X162661666Y-78787557D02*
X162709285Y-78882795D01*
X162709285Y-78882795D02*
X162756904Y-79073271D01*
X162756904Y-79073271D02*
X162756904Y-79311366D01*
X162756904Y-79311366D02*
X162709285Y-79501842D01*
X162709285Y-79501842D02*
X162661666Y-79597080D01*
X162661666Y-79597080D02*
X162614047Y-79644700D01*
X162614047Y-79644700D02*
X162518809Y-79692319D01*
X162518809Y-79692319D02*
X162423571Y-79692319D01*
X162423571Y-79692319D02*
X162328333Y-79644700D01*
X162328333Y-79644700D02*
X162280714Y-79597080D01*
X162280714Y-79597080D02*
X162233095Y-79501842D01*
X162233095Y-79501842D02*
X162185476Y-79311366D01*
X162185476Y-79311366D02*
X162185476Y-79073271D01*
X162185476Y-79073271D02*
X162233095Y-78882795D01*
X162233095Y-78882795D02*
X162280714Y-78787557D01*
X162280714Y-78787557D02*
X162328333Y-78739938D01*
X162328333Y-78739938D02*
X162423571Y-78692319D01*
X138058333Y-78559819D02*
X137725000Y-78083628D01*
X137486905Y-78559819D02*
X137486905Y-77559819D01*
X137486905Y-77559819D02*
X137867857Y-77559819D01*
X137867857Y-77559819D02*
X137963095Y-77607438D01*
X137963095Y-77607438D02*
X138010714Y-77655057D01*
X138010714Y-77655057D02*
X138058333Y-77750295D01*
X138058333Y-77750295D02*
X138058333Y-77893152D01*
X138058333Y-77893152D02*
X138010714Y-77988390D01*
X138010714Y-77988390D02*
X137963095Y-78036009D01*
X137963095Y-78036009D02*
X137867857Y-78083628D01*
X137867857Y-78083628D02*
X137486905Y-78083628D01*
X138963095Y-77559819D02*
X138486905Y-77559819D01*
X138486905Y-77559819D02*
X138439286Y-78036009D01*
X138439286Y-78036009D02*
X138486905Y-77988390D01*
X138486905Y-77988390D02*
X138582143Y-77940771D01*
X138582143Y-77940771D02*
X138820238Y-77940771D01*
X138820238Y-77940771D02*
X138915476Y-77988390D01*
X138915476Y-77988390D02*
X138963095Y-78036009D01*
X138963095Y-78036009D02*
X139010714Y-78131247D01*
X139010714Y-78131247D02*
X139010714Y-78369342D01*
X139010714Y-78369342D02*
X138963095Y-78464580D01*
X138963095Y-78464580D02*
X138915476Y-78512200D01*
X138915476Y-78512200D02*
X138820238Y-78559819D01*
X138820238Y-78559819D02*
X138582143Y-78559819D01*
X138582143Y-78559819D02*
X138486905Y-78512200D01*
X138486905Y-78512200D02*
X138439286Y-78464580D01*
X87299580Y-117482857D02*
X87347200Y-117530476D01*
X87347200Y-117530476D02*
X87394819Y-117673333D01*
X87394819Y-117673333D02*
X87394819Y-117768571D01*
X87394819Y-117768571D02*
X87347200Y-117911428D01*
X87347200Y-117911428D02*
X87251961Y-118006666D01*
X87251961Y-118006666D02*
X87156723Y-118054285D01*
X87156723Y-118054285D02*
X86966247Y-118101904D01*
X86966247Y-118101904D02*
X86823390Y-118101904D01*
X86823390Y-118101904D02*
X86632914Y-118054285D01*
X86632914Y-118054285D02*
X86537676Y-118006666D01*
X86537676Y-118006666D02*
X86442438Y-117911428D01*
X86442438Y-117911428D02*
X86394819Y-117768571D01*
X86394819Y-117768571D02*
X86394819Y-117673333D01*
X86394819Y-117673333D02*
X86442438Y-117530476D01*
X86442438Y-117530476D02*
X86490057Y-117482857D01*
X87394819Y-116530476D02*
X87394819Y-117101904D01*
X87394819Y-116816190D02*
X86394819Y-116816190D01*
X86394819Y-116816190D02*
X86537676Y-116911428D01*
X86537676Y-116911428D02*
X86632914Y-117006666D01*
X86632914Y-117006666D02*
X86680533Y-117101904D01*
X86490057Y-116149523D02*
X86442438Y-116101904D01*
X86442438Y-116101904D02*
X86394819Y-116006666D01*
X86394819Y-116006666D02*
X86394819Y-115768571D01*
X86394819Y-115768571D02*
X86442438Y-115673333D01*
X86442438Y-115673333D02*
X86490057Y-115625714D01*
X86490057Y-115625714D02*
X86585295Y-115578095D01*
X86585295Y-115578095D02*
X86680533Y-115578095D01*
X86680533Y-115578095D02*
X86823390Y-115625714D01*
X86823390Y-115625714D02*
X87394819Y-116197142D01*
X87394819Y-116197142D02*
X87394819Y-115578095D01*
X162409285Y-99626009D02*
X162552142Y-99673628D01*
X162552142Y-99673628D02*
X162599761Y-99721247D01*
X162599761Y-99721247D02*
X162647380Y-99816485D01*
X162647380Y-99816485D02*
X162647380Y-99959342D01*
X162647380Y-99959342D02*
X162599761Y-100054580D01*
X162599761Y-100054580D02*
X162552142Y-100102200D01*
X162552142Y-100102200D02*
X162456904Y-100149819D01*
X162456904Y-100149819D02*
X162075952Y-100149819D01*
X162075952Y-100149819D02*
X162075952Y-99149819D01*
X162075952Y-99149819D02*
X162409285Y-99149819D01*
X162409285Y-99149819D02*
X162504523Y-99197438D01*
X162504523Y-99197438D02*
X162552142Y-99245057D01*
X162552142Y-99245057D02*
X162599761Y-99340295D01*
X162599761Y-99340295D02*
X162599761Y-99435533D01*
X162599761Y-99435533D02*
X162552142Y-99530771D01*
X162552142Y-99530771D02*
X162504523Y-99578390D01*
X162504523Y-99578390D02*
X162409285Y-99626009D01*
X162409285Y-99626009D02*
X162075952Y-99626009D01*
X162933095Y-99149819D02*
X163504523Y-99149819D01*
X163218809Y-100149819D02*
X163218809Y-99149819D01*
X164361666Y-100149819D02*
X163790238Y-100149819D01*
X164075952Y-100149819D02*
X164075952Y-99149819D01*
X164075952Y-99149819D02*
X163980714Y-99292676D01*
X163980714Y-99292676D02*
X163885476Y-99387914D01*
X163885476Y-99387914D02*
X163790238Y-99435533D01*
X145437319Y-76606904D02*
X146246842Y-76606904D01*
X146246842Y-76606904D02*
X146342080Y-76559285D01*
X146342080Y-76559285D02*
X146389700Y-76511666D01*
X146389700Y-76511666D02*
X146437319Y-76416428D01*
X146437319Y-76416428D02*
X146437319Y-76225952D01*
X146437319Y-76225952D02*
X146389700Y-76130714D01*
X146389700Y-76130714D02*
X146342080Y-76083095D01*
X146342080Y-76083095D02*
X146246842Y-76035476D01*
X146246842Y-76035476D02*
X145437319Y-76035476D01*
X145532557Y-75606904D02*
X145484938Y-75559285D01*
X145484938Y-75559285D02*
X145437319Y-75464047D01*
X145437319Y-75464047D02*
X145437319Y-75225952D01*
X145437319Y-75225952D02*
X145484938Y-75130714D01*
X145484938Y-75130714D02*
X145532557Y-75083095D01*
X145532557Y-75083095D02*
X145627795Y-75035476D01*
X145627795Y-75035476D02*
X145723033Y-75035476D01*
X145723033Y-75035476D02*
X145865890Y-75083095D01*
X145865890Y-75083095D02*
X146437319Y-75654523D01*
X146437319Y-75654523D02*
X146437319Y-75035476D01*
X138058333Y-86264819D02*
X137725000Y-85788628D01*
X137486905Y-86264819D02*
X137486905Y-85264819D01*
X137486905Y-85264819D02*
X137867857Y-85264819D01*
X137867857Y-85264819D02*
X137963095Y-85312438D01*
X137963095Y-85312438D02*
X138010714Y-85360057D01*
X138010714Y-85360057D02*
X138058333Y-85455295D01*
X138058333Y-85455295D02*
X138058333Y-85598152D01*
X138058333Y-85598152D02*
X138010714Y-85693390D01*
X138010714Y-85693390D02*
X137963095Y-85741009D01*
X137963095Y-85741009D02*
X137867857Y-85788628D01*
X137867857Y-85788628D02*
X137486905Y-85788628D01*
X138439286Y-85360057D02*
X138486905Y-85312438D01*
X138486905Y-85312438D02*
X138582143Y-85264819D01*
X138582143Y-85264819D02*
X138820238Y-85264819D01*
X138820238Y-85264819D02*
X138915476Y-85312438D01*
X138915476Y-85312438D02*
X138963095Y-85360057D01*
X138963095Y-85360057D02*
X139010714Y-85455295D01*
X139010714Y-85455295D02*
X139010714Y-85550533D01*
X139010714Y-85550533D02*
X138963095Y-85693390D01*
X138963095Y-85693390D02*
X138391667Y-86264819D01*
X138391667Y-86264819D02*
X139010714Y-86264819D01*
X164973095Y-71594819D02*
X164973095Y-72404342D01*
X164973095Y-72404342D02*
X165020714Y-72499580D01*
X165020714Y-72499580D02*
X165068333Y-72547200D01*
X165068333Y-72547200D02*
X165163571Y-72594819D01*
X165163571Y-72594819D02*
X165354047Y-72594819D01*
X165354047Y-72594819D02*
X165449285Y-72547200D01*
X165449285Y-72547200D02*
X165496904Y-72499580D01*
X165496904Y-72499580D02*
X165544523Y-72404342D01*
X165544523Y-72404342D02*
X165544523Y-71594819D01*
X166544523Y-72594819D02*
X165973095Y-72594819D01*
X166258809Y-72594819D02*
X166258809Y-71594819D01*
X166258809Y-71594819D02*
X166163571Y-71737676D01*
X166163571Y-71737676D02*
X166068333Y-71832914D01*
X166068333Y-71832914D02*
X165973095Y-71880533D01*
X138058333Y-82454819D02*
X137725000Y-81978628D01*
X137486905Y-82454819D02*
X137486905Y-81454819D01*
X137486905Y-81454819D02*
X137867857Y-81454819D01*
X137867857Y-81454819D02*
X137963095Y-81502438D01*
X137963095Y-81502438D02*
X138010714Y-81550057D01*
X138010714Y-81550057D02*
X138058333Y-81645295D01*
X138058333Y-81645295D02*
X138058333Y-81788152D01*
X138058333Y-81788152D02*
X138010714Y-81883390D01*
X138010714Y-81883390D02*
X137963095Y-81931009D01*
X137963095Y-81931009D02*
X137867857Y-81978628D01*
X137867857Y-81978628D02*
X137486905Y-81978628D01*
X139010714Y-82454819D02*
X138439286Y-82454819D01*
X138725000Y-82454819D02*
X138725000Y-81454819D01*
X138725000Y-81454819D02*
X138629762Y-81597676D01*
X138629762Y-81597676D02*
X138534524Y-81692914D01*
X138534524Y-81692914D02*
X138439286Y-81740533D01*
X189255833Y-82369819D02*
X188922500Y-81893628D01*
X188684405Y-82369819D02*
X188684405Y-81369819D01*
X188684405Y-81369819D02*
X189065357Y-81369819D01*
X189065357Y-81369819D02*
X189160595Y-81417438D01*
X189160595Y-81417438D02*
X189208214Y-81465057D01*
X189208214Y-81465057D02*
X189255833Y-81560295D01*
X189255833Y-81560295D02*
X189255833Y-81703152D01*
X189255833Y-81703152D02*
X189208214Y-81798390D01*
X189208214Y-81798390D02*
X189160595Y-81846009D01*
X189160595Y-81846009D02*
X189065357Y-81893628D01*
X189065357Y-81893628D02*
X188684405Y-81893628D01*
X189589167Y-81369819D02*
X190255833Y-81369819D01*
X190255833Y-81369819D02*
X189827262Y-82369819D01*
X161315833Y-87449819D02*
X160982500Y-86973628D01*
X160744405Y-87449819D02*
X160744405Y-86449819D01*
X160744405Y-86449819D02*
X161125357Y-86449819D01*
X161125357Y-86449819D02*
X161220595Y-86497438D01*
X161220595Y-86497438D02*
X161268214Y-86545057D01*
X161268214Y-86545057D02*
X161315833Y-86640295D01*
X161315833Y-86640295D02*
X161315833Y-86783152D01*
X161315833Y-86783152D02*
X161268214Y-86878390D01*
X161268214Y-86878390D02*
X161220595Y-86926009D01*
X161220595Y-86926009D02*
X161125357Y-86973628D01*
X161125357Y-86973628D02*
X160744405Y-86973628D01*
X162172976Y-86449819D02*
X161982500Y-86449819D01*
X161982500Y-86449819D02*
X161887262Y-86497438D01*
X161887262Y-86497438D02*
X161839643Y-86545057D01*
X161839643Y-86545057D02*
X161744405Y-86687914D01*
X161744405Y-86687914D02*
X161696786Y-86878390D01*
X161696786Y-86878390D02*
X161696786Y-87259342D01*
X161696786Y-87259342D02*
X161744405Y-87354580D01*
X161744405Y-87354580D02*
X161792024Y-87402200D01*
X161792024Y-87402200D02*
X161887262Y-87449819D01*
X161887262Y-87449819D02*
X162077738Y-87449819D01*
X162077738Y-87449819D02*
X162172976Y-87402200D01*
X162172976Y-87402200D02*
X162220595Y-87354580D01*
X162220595Y-87354580D02*
X162268214Y-87259342D01*
X162268214Y-87259342D02*
X162268214Y-87021247D01*
X162268214Y-87021247D02*
X162220595Y-86926009D01*
X162220595Y-86926009D02*
X162172976Y-86878390D01*
X162172976Y-86878390D02*
X162077738Y-86830771D01*
X162077738Y-86830771D02*
X161887262Y-86830771D01*
X161887262Y-86830771D02*
X161792024Y-86878390D01*
X161792024Y-86878390D02*
X161744405Y-86926009D01*
X161744405Y-86926009D02*
X161696786Y-87021247D01*
X117834580Y-117006666D02*
X117882200Y-117054285D01*
X117882200Y-117054285D02*
X117929819Y-117197142D01*
X117929819Y-117197142D02*
X117929819Y-117292380D01*
X117929819Y-117292380D02*
X117882200Y-117435237D01*
X117882200Y-117435237D02*
X117786961Y-117530475D01*
X117786961Y-117530475D02*
X117691723Y-117578094D01*
X117691723Y-117578094D02*
X117501247Y-117625713D01*
X117501247Y-117625713D02*
X117358390Y-117625713D01*
X117358390Y-117625713D02*
X117167914Y-117578094D01*
X117167914Y-117578094D02*
X117072676Y-117530475D01*
X117072676Y-117530475D02*
X116977438Y-117435237D01*
X116977438Y-117435237D02*
X116929819Y-117292380D01*
X116929819Y-117292380D02*
X116929819Y-117197142D01*
X116929819Y-117197142D02*
X116977438Y-117054285D01*
X116977438Y-117054285D02*
X117025057Y-117006666D01*
X116929819Y-116673332D02*
X116929819Y-116054285D01*
X116929819Y-116054285D02*
X117310771Y-116387618D01*
X117310771Y-116387618D02*
X117310771Y-116244761D01*
X117310771Y-116244761D02*
X117358390Y-116149523D01*
X117358390Y-116149523D02*
X117406009Y-116101904D01*
X117406009Y-116101904D02*
X117501247Y-116054285D01*
X117501247Y-116054285D02*
X117739342Y-116054285D01*
X117739342Y-116054285D02*
X117834580Y-116101904D01*
X117834580Y-116101904D02*
X117882200Y-116149523D01*
X117882200Y-116149523D02*
X117929819Y-116244761D01*
X117929819Y-116244761D02*
X117929819Y-116530475D01*
X117929819Y-116530475D02*
X117882200Y-116625713D01*
X117882200Y-116625713D02*
X117834580Y-116673332D01*
X76771667Y-112802200D02*
X76914524Y-112849819D01*
X76914524Y-112849819D02*
X77152619Y-112849819D01*
X77152619Y-112849819D02*
X77247857Y-112802200D01*
X77247857Y-112802200D02*
X77295476Y-112754580D01*
X77295476Y-112754580D02*
X77343095Y-112659342D01*
X77343095Y-112659342D02*
X77343095Y-112564104D01*
X77343095Y-112564104D02*
X77295476Y-112468866D01*
X77295476Y-112468866D02*
X77247857Y-112421247D01*
X77247857Y-112421247D02*
X77152619Y-112373628D01*
X77152619Y-112373628D02*
X76962143Y-112326009D01*
X76962143Y-112326009D02*
X76866905Y-112278390D01*
X76866905Y-112278390D02*
X76819286Y-112230771D01*
X76819286Y-112230771D02*
X76771667Y-112135533D01*
X76771667Y-112135533D02*
X76771667Y-112040295D01*
X76771667Y-112040295D02*
X76819286Y-111945057D01*
X76819286Y-111945057D02*
X76866905Y-111897438D01*
X76866905Y-111897438D02*
X76962143Y-111849819D01*
X76962143Y-111849819D02*
X77200238Y-111849819D01*
X77200238Y-111849819D02*
X77343095Y-111897438D01*
X77676429Y-111849819D02*
X77914524Y-112849819D01*
X77914524Y-112849819D02*
X78105000Y-112135533D01*
X78105000Y-112135533D02*
X78295476Y-112849819D01*
X78295476Y-112849819D02*
X78533572Y-111849819D01*
X78819286Y-111849819D02*
X79438333Y-111849819D01*
X79438333Y-111849819D02*
X79105000Y-112230771D01*
X79105000Y-112230771D02*
X79247857Y-112230771D01*
X79247857Y-112230771D02*
X79343095Y-112278390D01*
X79343095Y-112278390D02*
X79390714Y-112326009D01*
X79390714Y-112326009D02*
X79438333Y-112421247D01*
X79438333Y-112421247D02*
X79438333Y-112659342D01*
X79438333Y-112659342D02*
X79390714Y-112754580D01*
X79390714Y-112754580D02*
X79343095Y-112802200D01*
X79343095Y-112802200D02*
X79247857Y-112849819D01*
X79247857Y-112849819D02*
X78962143Y-112849819D01*
X78962143Y-112849819D02*
X78866905Y-112802200D01*
X78866905Y-112802200D02*
X78819286Y-112754580D01*
X170727142Y-92589580D02*
X170679523Y-92637200D01*
X170679523Y-92637200D02*
X170536666Y-92684819D01*
X170536666Y-92684819D02*
X170441428Y-92684819D01*
X170441428Y-92684819D02*
X170298571Y-92637200D01*
X170298571Y-92637200D02*
X170203333Y-92541961D01*
X170203333Y-92541961D02*
X170155714Y-92446723D01*
X170155714Y-92446723D02*
X170108095Y-92256247D01*
X170108095Y-92256247D02*
X170108095Y-92113390D01*
X170108095Y-92113390D02*
X170155714Y-91922914D01*
X170155714Y-91922914D02*
X170203333Y-91827676D01*
X170203333Y-91827676D02*
X170298571Y-91732438D01*
X170298571Y-91732438D02*
X170441428Y-91684819D01*
X170441428Y-91684819D02*
X170536666Y-91684819D01*
X170536666Y-91684819D02*
X170679523Y-91732438D01*
X170679523Y-91732438D02*
X170727142Y-91780057D01*
X171679523Y-92684819D02*
X171108095Y-92684819D01*
X171393809Y-92684819D02*
X171393809Y-91684819D01*
X171393809Y-91684819D02*
X171298571Y-91827676D01*
X171298571Y-91827676D02*
X171203333Y-91922914D01*
X171203333Y-91922914D02*
X171108095Y-91970533D01*
X172012857Y-91684819D02*
X172631904Y-91684819D01*
X172631904Y-91684819D02*
X172298571Y-92065771D01*
X172298571Y-92065771D02*
X172441428Y-92065771D01*
X172441428Y-92065771D02*
X172536666Y-92113390D01*
X172536666Y-92113390D02*
X172584285Y-92161009D01*
X172584285Y-92161009D02*
X172631904Y-92256247D01*
X172631904Y-92256247D02*
X172631904Y-92494342D01*
X172631904Y-92494342D02*
X172584285Y-92589580D01*
X172584285Y-92589580D02*
X172536666Y-92637200D01*
X172536666Y-92637200D02*
X172441428Y-92684819D01*
X172441428Y-92684819D02*
X172155714Y-92684819D01*
X172155714Y-92684819D02*
X172060476Y-92637200D01*
X172060476Y-92637200D02*
X172012857Y-92589580D01*
X218854819Y-117578094D02*
X217854819Y-117578094D01*
X217854819Y-117578094D02*
X217854819Y-117339999D01*
X217854819Y-117339999D02*
X217902438Y-117197142D01*
X217902438Y-117197142D02*
X217997676Y-117101904D01*
X217997676Y-117101904D02*
X218092914Y-117054285D01*
X218092914Y-117054285D02*
X218283390Y-117006666D01*
X218283390Y-117006666D02*
X218426247Y-117006666D01*
X218426247Y-117006666D02*
X218616723Y-117054285D01*
X218616723Y-117054285D02*
X218711961Y-117101904D01*
X218711961Y-117101904D02*
X218807200Y-117197142D01*
X218807200Y-117197142D02*
X218854819Y-117339999D01*
X218854819Y-117339999D02*
X218854819Y-117578094D01*
X218854819Y-116054285D02*
X218854819Y-116625713D01*
X218854819Y-116339999D02*
X217854819Y-116339999D01*
X217854819Y-116339999D02*
X217997676Y-116435237D01*
X217997676Y-116435237D02*
X218092914Y-116530475D01*
X218092914Y-116530475D02*
X218140533Y-116625713D01*
X169578095Y-95974819D02*
X169578095Y-96784342D01*
X169578095Y-96784342D02*
X169625714Y-96879580D01*
X169625714Y-96879580D02*
X169673333Y-96927200D01*
X169673333Y-96927200D02*
X169768571Y-96974819D01*
X169768571Y-96974819D02*
X169959047Y-96974819D01*
X169959047Y-96974819D02*
X170054285Y-96927200D01*
X170054285Y-96927200D02*
X170101904Y-96879580D01*
X170101904Y-96879580D02*
X170149523Y-96784342D01*
X170149523Y-96784342D02*
X170149523Y-95974819D01*
X170530476Y-95974819D02*
X171149523Y-95974819D01*
X171149523Y-95974819D02*
X170816190Y-96355771D01*
X170816190Y-96355771D02*
X170959047Y-96355771D01*
X170959047Y-96355771D02*
X171054285Y-96403390D01*
X171054285Y-96403390D02*
X171101904Y-96451009D01*
X171101904Y-96451009D02*
X171149523Y-96546247D01*
X171149523Y-96546247D02*
X171149523Y-96784342D01*
X171149523Y-96784342D02*
X171101904Y-96879580D01*
X171101904Y-96879580D02*
X171054285Y-96927200D01*
X171054285Y-96927200D02*
X170959047Y-96974819D01*
X170959047Y-96974819D02*
X170673333Y-96974819D01*
X170673333Y-96974819D02*
X170578095Y-96927200D01*
X170578095Y-96927200D02*
X170530476Y-96879580D01*
X153708333Y-87354580D02*
X153660714Y-87402200D01*
X153660714Y-87402200D02*
X153517857Y-87449819D01*
X153517857Y-87449819D02*
X153422619Y-87449819D01*
X153422619Y-87449819D02*
X153279762Y-87402200D01*
X153279762Y-87402200D02*
X153184524Y-87306961D01*
X153184524Y-87306961D02*
X153136905Y-87211723D01*
X153136905Y-87211723D02*
X153089286Y-87021247D01*
X153089286Y-87021247D02*
X153089286Y-86878390D01*
X153089286Y-86878390D02*
X153136905Y-86687914D01*
X153136905Y-86687914D02*
X153184524Y-86592676D01*
X153184524Y-86592676D02*
X153279762Y-86497438D01*
X153279762Y-86497438D02*
X153422619Y-86449819D01*
X153422619Y-86449819D02*
X153517857Y-86449819D01*
X153517857Y-86449819D02*
X153660714Y-86497438D01*
X153660714Y-86497438D02*
X153708333Y-86545057D01*
X154089286Y-86545057D02*
X154136905Y-86497438D01*
X154136905Y-86497438D02*
X154232143Y-86449819D01*
X154232143Y-86449819D02*
X154470238Y-86449819D01*
X154470238Y-86449819D02*
X154565476Y-86497438D01*
X154565476Y-86497438D02*
X154613095Y-86545057D01*
X154613095Y-86545057D02*
X154660714Y-86640295D01*
X154660714Y-86640295D02*
X154660714Y-86735533D01*
X154660714Y-86735533D02*
X154613095Y-86878390D01*
X154613095Y-86878390D02*
X154041667Y-87449819D01*
X154041667Y-87449819D02*
X154660714Y-87449819D01*
X188792142Y-87409580D02*
X188744523Y-87457200D01*
X188744523Y-87457200D02*
X188601666Y-87504819D01*
X188601666Y-87504819D02*
X188506428Y-87504819D01*
X188506428Y-87504819D02*
X188363571Y-87457200D01*
X188363571Y-87457200D02*
X188268333Y-87361961D01*
X188268333Y-87361961D02*
X188220714Y-87266723D01*
X188220714Y-87266723D02*
X188173095Y-87076247D01*
X188173095Y-87076247D02*
X188173095Y-86933390D01*
X188173095Y-86933390D02*
X188220714Y-86742914D01*
X188220714Y-86742914D02*
X188268333Y-86647676D01*
X188268333Y-86647676D02*
X188363571Y-86552438D01*
X188363571Y-86552438D02*
X188506428Y-86504819D01*
X188506428Y-86504819D02*
X188601666Y-86504819D01*
X188601666Y-86504819D02*
X188744523Y-86552438D01*
X188744523Y-86552438D02*
X188792142Y-86600057D01*
X189744523Y-87504819D02*
X189173095Y-87504819D01*
X189458809Y-87504819D02*
X189458809Y-86504819D01*
X189458809Y-86504819D02*
X189363571Y-86647676D01*
X189363571Y-86647676D02*
X189268333Y-86742914D01*
X189268333Y-86742914D02*
X189173095Y-86790533D01*
X190601666Y-86838152D02*
X190601666Y-87504819D01*
X190363571Y-86457200D02*
X190125476Y-87171485D01*
X190125476Y-87171485D02*
X190744523Y-87171485D01*
X170727142Y-105289580D02*
X170679523Y-105337200D01*
X170679523Y-105337200D02*
X170536666Y-105384819D01*
X170536666Y-105384819D02*
X170441428Y-105384819D01*
X170441428Y-105384819D02*
X170298571Y-105337200D01*
X170298571Y-105337200D02*
X170203333Y-105241961D01*
X170203333Y-105241961D02*
X170155714Y-105146723D01*
X170155714Y-105146723D02*
X170108095Y-104956247D01*
X170108095Y-104956247D02*
X170108095Y-104813390D01*
X170108095Y-104813390D02*
X170155714Y-104622914D01*
X170155714Y-104622914D02*
X170203333Y-104527676D01*
X170203333Y-104527676D02*
X170298571Y-104432438D01*
X170298571Y-104432438D02*
X170441428Y-104384819D01*
X170441428Y-104384819D02*
X170536666Y-104384819D01*
X170536666Y-104384819D02*
X170679523Y-104432438D01*
X170679523Y-104432438D02*
X170727142Y-104480057D01*
X171679523Y-105384819D02*
X171108095Y-105384819D01*
X171393809Y-105384819D02*
X171393809Y-104384819D01*
X171393809Y-104384819D02*
X171298571Y-104527676D01*
X171298571Y-104527676D02*
X171203333Y-104622914D01*
X171203333Y-104622914D02*
X171108095Y-104670533D01*
X172631904Y-105384819D02*
X172060476Y-105384819D01*
X172346190Y-105384819D02*
X172346190Y-104384819D01*
X172346190Y-104384819D02*
X172250952Y-104527676D01*
X172250952Y-104527676D02*
X172155714Y-104622914D01*
X172155714Y-104622914D02*
X172060476Y-104670533D01*
X91936667Y-112802200D02*
X92079524Y-112849819D01*
X92079524Y-112849819D02*
X92317619Y-112849819D01*
X92317619Y-112849819D02*
X92412857Y-112802200D01*
X92412857Y-112802200D02*
X92460476Y-112754580D01*
X92460476Y-112754580D02*
X92508095Y-112659342D01*
X92508095Y-112659342D02*
X92508095Y-112564104D01*
X92508095Y-112564104D02*
X92460476Y-112468866D01*
X92460476Y-112468866D02*
X92412857Y-112421247D01*
X92412857Y-112421247D02*
X92317619Y-112373628D01*
X92317619Y-112373628D02*
X92127143Y-112326009D01*
X92127143Y-112326009D02*
X92031905Y-112278390D01*
X92031905Y-112278390D02*
X91984286Y-112230771D01*
X91984286Y-112230771D02*
X91936667Y-112135533D01*
X91936667Y-112135533D02*
X91936667Y-112040295D01*
X91936667Y-112040295D02*
X91984286Y-111945057D01*
X91984286Y-111945057D02*
X92031905Y-111897438D01*
X92031905Y-111897438D02*
X92127143Y-111849819D01*
X92127143Y-111849819D02*
X92365238Y-111849819D01*
X92365238Y-111849819D02*
X92508095Y-111897438D01*
X92841429Y-111849819D02*
X93079524Y-112849819D01*
X93079524Y-112849819D02*
X93270000Y-112135533D01*
X93270000Y-112135533D02*
X93460476Y-112849819D01*
X93460476Y-112849819D02*
X93698572Y-111849819D01*
X94603333Y-112849819D02*
X94031905Y-112849819D01*
X94317619Y-112849819D02*
X94317619Y-111849819D01*
X94317619Y-111849819D02*
X94222381Y-111992676D01*
X94222381Y-111992676D02*
X94127143Y-112087914D01*
X94127143Y-112087914D02*
X94031905Y-112135533D01*
X154674819Y-66399166D02*
X154198628Y-66732499D01*
X154674819Y-66970594D02*
X153674819Y-66970594D01*
X153674819Y-66970594D02*
X153674819Y-66589642D01*
X153674819Y-66589642D02*
X153722438Y-66494404D01*
X153722438Y-66494404D02*
X153770057Y-66446785D01*
X153770057Y-66446785D02*
X153865295Y-66399166D01*
X153865295Y-66399166D02*
X154008152Y-66399166D01*
X154008152Y-66399166D02*
X154103390Y-66446785D01*
X154103390Y-66446785D02*
X154151009Y-66494404D01*
X154151009Y-66494404D02*
X154198628Y-66589642D01*
X154198628Y-66589642D02*
X154198628Y-66970594D01*
X153674819Y-66065832D02*
X153674819Y-65446785D01*
X153674819Y-65446785D02*
X154055771Y-65780118D01*
X154055771Y-65780118D02*
X154055771Y-65637261D01*
X154055771Y-65637261D02*
X154103390Y-65542023D01*
X154103390Y-65542023D02*
X154151009Y-65494404D01*
X154151009Y-65494404D02*
X154246247Y-65446785D01*
X154246247Y-65446785D02*
X154484342Y-65446785D01*
X154484342Y-65446785D02*
X154579580Y-65494404D01*
X154579580Y-65494404D02*
X154627200Y-65542023D01*
X154627200Y-65542023D02*
X154674819Y-65637261D01*
X154674819Y-65637261D02*
X154674819Y-65922975D01*
X154674819Y-65922975D02*
X154627200Y-66018213D01*
X154627200Y-66018213D02*
X154579580Y-66065832D01*
X94890833Y-82369819D02*
X94557500Y-81893628D01*
X94319405Y-82369819D02*
X94319405Y-81369819D01*
X94319405Y-81369819D02*
X94700357Y-81369819D01*
X94700357Y-81369819D02*
X94795595Y-81417438D01*
X94795595Y-81417438D02*
X94843214Y-81465057D01*
X94843214Y-81465057D02*
X94890833Y-81560295D01*
X94890833Y-81560295D02*
X94890833Y-81703152D01*
X94890833Y-81703152D02*
X94843214Y-81798390D01*
X94843214Y-81798390D02*
X94795595Y-81846009D01*
X94795595Y-81846009D02*
X94700357Y-81893628D01*
X94700357Y-81893628D02*
X94319405Y-81893628D01*
X95462262Y-81798390D02*
X95367024Y-81750771D01*
X95367024Y-81750771D02*
X95319405Y-81703152D01*
X95319405Y-81703152D02*
X95271786Y-81607914D01*
X95271786Y-81607914D02*
X95271786Y-81560295D01*
X95271786Y-81560295D02*
X95319405Y-81465057D01*
X95319405Y-81465057D02*
X95367024Y-81417438D01*
X95367024Y-81417438D02*
X95462262Y-81369819D01*
X95462262Y-81369819D02*
X95652738Y-81369819D01*
X95652738Y-81369819D02*
X95747976Y-81417438D01*
X95747976Y-81417438D02*
X95795595Y-81465057D01*
X95795595Y-81465057D02*
X95843214Y-81560295D01*
X95843214Y-81560295D02*
X95843214Y-81607914D01*
X95843214Y-81607914D02*
X95795595Y-81703152D01*
X95795595Y-81703152D02*
X95747976Y-81750771D01*
X95747976Y-81750771D02*
X95652738Y-81798390D01*
X95652738Y-81798390D02*
X95462262Y-81798390D01*
X95462262Y-81798390D02*
X95367024Y-81846009D01*
X95367024Y-81846009D02*
X95319405Y-81893628D01*
X95319405Y-81893628D02*
X95271786Y-81988866D01*
X95271786Y-81988866D02*
X95271786Y-82179342D01*
X95271786Y-82179342D02*
X95319405Y-82274580D01*
X95319405Y-82274580D02*
X95367024Y-82322200D01*
X95367024Y-82322200D02*
X95462262Y-82369819D01*
X95462262Y-82369819D02*
X95652738Y-82369819D01*
X95652738Y-82369819D02*
X95747976Y-82322200D01*
X95747976Y-82322200D02*
X95795595Y-82274580D01*
X95795595Y-82274580D02*
X95843214Y-82179342D01*
X95843214Y-82179342D02*
X95843214Y-81988866D01*
X95843214Y-81988866D02*
X95795595Y-81893628D01*
X95795595Y-81893628D02*
X95747976Y-81846009D01*
X95747976Y-81846009D02*
X95652738Y-81798390D01*
X107251667Y-112802200D02*
X107394524Y-112849819D01*
X107394524Y-112849819D02*
X107632619Y-112849819D01*
X107632619Y-112849819D02*
X107727857Y-112802200D01*
X107727857Y-112802200D02*
X107775476Y-112754580D01*
X107775476Y-112754580D02*
X107823095Y-112659342D01*
X107823095Y-112659342D02*
X107823095Y-112564104D01*
X107823095Y-112564104D02*
X107775476Y-112468866D01*
X107775476Y-112468866D02*
X107727857Y-112421247D01*
X107727857Y-112421247D02*
X107632619Y-112373628D01*
X107632619Y-112373628D02*
X107442143Y-112326009D01*
X107442143Y-112326009D02*
X107346905Y-112278390D01*
X107346905Y-112278390D02*
X107299286Y-112230771D01*
X107299286Y-112230771D02*
X107251667Y-112135533D01*
X107251667Y-112135533D02*
X107251667Y-112040295D01*
X107251667Y-112040295D02*
X107299286Y-111945057D01*
X107299286Y-111945057D02*
X107346905Y-111897438D01*
X107346905Y-111897438D02*
X107442143Y-111849819D01*
X107442143Y-111849819D02*
X107680238Y-111849819D01*
X107680238Y-111849819D02*
X107823095Y-111897438D01*
X108156429Y-111849819D02*
X108394524Y-112849819D01*
X108394524Y-112849819D02*
X108585000Y-112135533D01*
X108585000Y-112135533D02*
X108775476Y-112849819D01*
X108775476Y-112849819D02*
X109013572Y-111849819D01*
X109346905Y-111945057D02*
X109394524Y-111897438D01*
X109394524Y-111897438D02*
X109489762Y-111849819D01*
X109489762Y-111849819D02*
X109727857Y-111849819D01*
X109727857Y-111849819D02*
X109823095Y-111897438D01*
X109823095Y-111897438D02*
X109870714Y-111945057D01*
X109870714Y-111945057D02*
X109918333Y-112040295D01*
X109918333Y-112040295D02*
X109918333Y-112135533D01*
X109918333Y-112135533D02*
X109870714Y-112278390D01*
X109870714Y-112278390D02*
X109299286Y-112849819D01*
X109299286Y-112849819D02*
X109918333Y-112849819D01*
X94402142Y-87409580D02*
X94354523Y-87457200D01*
X94354523Y-87457200D02*
X94211666Y-87504819D01*
X94211666Y-87504819D02*
X94116428Y-87504819D01*
X94116428Y-87504819D02*
X93973571Y-87457200D01*
X93973571Y-87457200D02*
X93878333Y-87361961D01*
X93878333Y-87361961D02*
X93830714Y-87266723D01*
X93830714Y-87266723D02*
X93783095Y-87076247D01*
X93783095Y-87076247D02*
X93783095Y-86933390D01*
X93783095Y-86933390D02*
X93830714Y-86742914D01*
X93830714Y-86742914D02*
X93878333Y-86647676D01*
X93878333Y-86647676D02*
X93973571Y-86552438D01*
X93973571Y-86552438D02*
X94116428Y-86504819D01*
X94116428Y-86504819D02*
X94211666Y-86504819D01*
X94211666Y-86504819D02*
X94354523Y-86552438D01*
X94354523Y-86552438D02*
X94402142Y-86600057D01*
X95354523Y-87504819D02*
X94783095Y-87504819D01*
X95068809Y-87504819D02*
X95068809Y-86504819D01*
X95068809Y-86504819D02*
X94973571Y-86647676D01*
X94973571Y-86647676D02*
X94878333Y-86742914D01*
X94878333Y-86742914D02*
X94783095Y-86790533D01*
X96259285Y-86504819D02*
X95783095Y-86504819D01*
X95783095Y-86504819D02*
X95735476Y-86981009D01*
X95735476Y-86981009D02*
X95783095Y-86933390D01*
X95783095Y-86933390D02*
X95878333Y-86885771D01*
X95878333Y-86885771D02*
X96116428Y-86885771D01*
X96116428Y-86885771D02*
X96211666Y-86933390D01*
X96211666Y-86933390D02*
X96259285Y-86981009D01*
X96259285Y-86981009D02*
X96306904Y-87076247D01*
X96306904Y-87076247D02*
X96306904Y-87314342D01*
X96306904Y-87314342D02*
X96259285Y-87409580D01*
X96259285Y-87409580D02*
X96211666Y-87457200D01*
X96211666Y-87457200D02*
X96116428Y-87504819D01*
X96116428Y-87504819D02*
X95878333Y-87504819D01*
X95878333Y-87504819D02*
X95783095Y-87457200D01*
X95783095Y-87457200D02*
X95735476Y-87409580D01*
X145883333Y-83394580D02*
X145835714Y-83442200D01*
X145835714Y-83442200D02*
X145692857Y-83489819D01*
X145692857Y-83489819D02*
X145597619Y-83489819D01*
X145597619Y-83489819D02*
X145454762Y-83442200D01*
X145454762Y-83442200D02*
X145359524Y-83346961D01*
X145359524Y-83346961D02*
X145311905Y-83251723D01*
X145311905Y-83251723D02*
X145264286Y-83061247D01*
X145264286Y-83061247D02*
X145264286Y-82918390D01*
X145264286Y-82918390D02*
X145311905Y-82727914D01*
X145311905Y-82727914D02*
X145359524Y-82632676D01*
X145359524Y-82632676D02*
X145454762Y-82537438D01*
X145454762Y-82537438D02*
X145597619Y-82489819D01*
X145597619Y-82489819D02*
X145692857Y-82489819D01*
X145692857Y-82489819D02*
X145835714Y-82537438D01*
X145835714Y-82537438D02*
X145883333Y-82585057D01*
X146740476Y-82489819D02*
X146550000Y-82489819D01*
X146550000Y-82489819D02*
X146454762Y-82537438D01*
X146454762Y-82537438D02*
X146407143Y-82585057D01*
X146407143Y-82585057D02*
X146311905Y-82727914D01*
X146311905Y-82727914D02*
X146264286Y-82918390D01*
X146264286Y-82918390D02*
X146264286Y-83299342D01*
X146264286Y-83299342D02*
X146311905Y-83394580D01*
X146311905Y-83394580D02*
X146359524Y-83442200D01*
X146359524Y-83442200D02*
X146454762Y-83489819D01*
X146454762Y-83489819D02*
X146645238Y-83489819D01*
X146645238Y-83489819D02*
X146740476Y-83442200D01*
X146740476Y-83442200D02*
X146788095Y-83394580D01*
X146788095Y-83394580D02*
X146835714Y-83299342D01*
X146835714Y-83299342D02*
X146835714Y-83061247D01*
X146835714Y-83061247D02*
X146788095Y-82966009D01*
X146788095Y-82966009D02*
X146740476Y-82918390D01*
X146740476Y-82918390D02*
X146645238Y-82870771D01*
X146645238Y-82870771D02*
X146454762Y-82870771D01*
X146454762Y-82870771D02*
X146359524Y-82918390D01*
X146359524Y-82918390D02*
X146311905Y-82966009D01*
X146311905Y-82966009D02*
X146264286Y-83061247D01*
X150864819Y-66399166D02*
X150388628Y-66732499D01*
X150864819Y-66970594D02*
X149864819Y-66970594D01*
X149864819Y-66970594D02*
X149864819Y-66589642D01*
X149864819Y-66589642D02*
X149912438Y-66494404D01*
X149912438Y-66494404D02*
X149960057Y-66446785D01*
X149960057Y-66446785D02*
X150055295Y-66399166D01*
X150055295Y-66399166D02*
X150198152Y-66399166D01*
X150198152Y-66399166D02*
X150293390Y-66446785D01*
X150293390Y-66446785D02*
X150341009Y-66494404D01*
X150341009Y-66494404D02*
X150388628Y-66589642D01*
X150388628Y-66589642D02*
X150388628Y-66970594D01*
X150198152Y-65542023D02*
X150864819Y-65542023D01*
X149817200Y-65780118D02*
X150531485Y-66018213D01*
X150531485Y-66018213D02*
X150531485Y-65399166D01*
X153708333Y-83544580D02*
X153660714Y-83592200D01*
X153660714Y-83592200D02*
X153517857Y-83639819D01*
X153517857Y-83639819D02*
X153422619Y-83639819D01*
X153422619Y-83639819D02*
X153279762Y-83592200D01*
X153279762Y-83592200D02*
X153184524Y-83496961D01*
X153184524Y-83496961D02*
X153136905Y-83401723D01*
X153136905Y-83401723D02*
X153089286Y-83211247D01*
X153089286Y-83211247D02*
X153089286Y-83068390D01*
X153089286Y-83068390D02*
X153136905Y-82877914D01*
X153136905Y-82877914D02*
X153184524Y-82782676D01*
X153184524Y-82782676D02*
X153279762Y-82687438D01*
X153279762Y-82687438D02*
X153422619Y-82639819D01*
X153422619Y-82639819D02*
X153517857Y-82639819D01*
X153517857Y-82639819D02*
X153660714Y-82687438D01*
X153660714Y-82687438D02*
X153708333Y-82735057D01*
X154041667Y-82639819D02*
X154708333Y-82639819D01*
X154708333Y-82639819D02*
X154279762Y-83639819D01*
X138058333Y-89949580D02*
X138010714Y-89997200D01*
X138010714Y-89997200D02*
X137867857Y-90044819D01*
X137867857Y-90044819D02*
X137772619Y-90044819D01*
X137772619Y-90044819D02*
X137629762Y-89997200D01*
X137629762Y-89997200D02*
X137534524Y-89901961D01*
X137534524Y-89901961D02*
X137486905Y-89806723D01*
X137486905Y-89806723D02*
X137439286Y-89616247D01*
X137439286Y-89616247D02*
X137439286Y-89473390D01*
X137439286Y-89473390D02*
X137486905Y-89282914D01*
X137486905Y-89282914D02*
X137534524Y-89187676D01*
X137534524Y-89187676D02*
X137629762Y-89092438D01*
X137629762Y-89092438D02*
X137772619Y-89044819D01*
X137772619Y-89044819D02*
X137867857Y-89044819D01*
X137867857Y-89044819D02*
X138010714Y-89092438D01*
X138010714Y-89092438D02*
X138058333Y-89140057D01*
X138963095Y-89044819D02*
X138486905Y-89044819D01*
X138486905Y-89044819D02*
X138439286Y-89521009D01*
X138439286Y-89521009D02*
X138486905Y-89473390D01*
X138486905Y-89473390D02*
X138582143Y-89425771D01*
X138582143Y-89425771D02*
X138820238Y-89425771D01*
X138820238Y-89425771D02*
X138915476Y-89473390D01*
X138915476Y-89473390D02*
X138963095Y-89521009D01*
X138963095Y-89521009D02*
X139010714Y-89616247D01*
X139010714Y-89616247D02*
X139010714Y-89854342D01*
X139010714Y-89854342D02*
X138963095Y-89949580D01*
X138963095Y-89949580D02*
X138915476Y-89997200D01*
X138915476Y-89997200D02*
X138820238Y-90044819D01*
X138820238Y-90044819D02*
X138582143Y-90044819D01*
X138582143Y-90044819D02*
X138486905Y-89997200D01*
X138486905Y-89997200D02*
X138439286Y-89949580D01*
X98344819Y-89661904D02*
X99154342Y-89661904D01*
X99154342Y-89661904D02*
X99249580Y-89614285D01*
X99249580Y-89614285D02*
X99297200Y-89566666D01*
X99297200Y-89566666D02*
X99344819Y-89471428D01*
X99344819Y-89471428D02*
X99344819Y-89280952D01*
X99344819Y-89280952D02*
X99297200Y-89185714D01*
X99297200Y-89185714D02*
X99249580Y-89138095D01*
X99249580Y-89138095D02*
X99154342Y-89090476D01*
X99154342Y-89090476D02*
X98344819Y-89090476D01*
X98344819Y-88138095D02*
X98344819Y-88614285D01*
X98344819Y-88614285D02*
X98821009Y-88661904D01*
X98821009Y-88661904D02*
X98773390Y-88614285D01*
X98773390Y-88614285D02*
X98725771Y-88519047D01*
X98725771Y-88519047D02*
X98725771Y-88280952D01*
X98725771Y-88280952D02*
X98773390Y-88185714D01*
X98773390Y-88185714D02*
X98821009Y-88138095D01*
X98821009Y-88138095D02*
X98916247Y-88090476D01*
X98916247Y-88090476D02*
X99154342Y-88090476D01*
X99154342Y-88090476D02*
X99249580Y-88138095D01*
X99249580Y-88138095D02*
X99297200Y-88185714D01*
X99297200Y-88185714D02*
X99344819Y-88280952D01*
X99344819Y-88280952D02*
X99344819Y-88519047D01*
X99344819Y-88519047D02*
X99297200Y-88614285D01*
X99297200Y-88614285D02*
X99249580Y-88661904D01*
X221631009Y-117173333D02*
X221631009Y-117506666D01*
X222154819Y-117506666D02*
X221154819Y-117506666D01*
X221154819Y-117506666D02*
X221154819Y-117030476D01*
X222154819Y-116125714D02*
X222154819Y-116697142D01*
X222154819Y-116411428D02*
X221154819Y-116411428D01*
X221154819Y-116411428D02*
X221297676Y-116506666D01*
X221297676Y-116506666D02*
X221392914Y-116601904D01*
X221392914Y-116601904D02*
X221440533Y-116697142D01*
X161328333Y-83599580D02*
X161280714Y-83647200D01*
X161280714Y-83647200D02*
X161137857Y-83694819D01*
X161137857Y-83694819D02*
X161042619Y-83694819D01*
X161042619Y-83694819D02*
X160899762Y-83647200D01*
X160899762Y-83647200D02*
X160804524Y-83551961D01*
X160804524Y-83551961D02*
X160756905Y-83456723D01*
X160756905Y-83456723D02*
X160709286Y-83266247D01*
X160709286Y-83266247D02*
X160709286Y-83123390D01*
X160709286Y-83123390D02*
X160756905Y-82932914D01*
X160756905Y-82932914D02*
X160804524Y-82837676D01*
X160804524Y-82837676D02*
X160899762Y-82742438D01*
X160899762Y-82742438D02*
X161042619Y-82694819D01*
X161042619Y-82694819D02*
X161137857Y-82694819D01*
X161137857Y-82694819D02*
X161280714Y-82742438D01*
X161280714Y-82742438D02*
X161328333Y-82790057D01*
X161804524Y-83694819D02*
X161995000Y-83694819D01*
X161995000Y-83694819D02*
X162090238Y-83647200D01*
X162090238Y-83647200D02*
X162137857Y-83599580D01*
X162137857Y-83599580D02*
X162233095Y-83456723D01*
X162233095Y-83456723D02*
X162280714Y-83266247D01*
X162280714Y-83266247D02*
X162280714Y-82885295D01*
X162280714Y-82885295D02*
X162233095Y-82790057D01*
X162233095Y-82790057D02*
X162185476Y-82742438D01*
X162185476Y-82742438D02*
X162090238Y-82694819D01*
X162090238Y-82694819D02*
X161899762Y-82694819D01*
X161899762Y-82694819D02*
X161804524Y-82742438D01*
X161804524Y-82742438D02*
X161756905Y-82790057D01*
X161756905Y-82790057D02*
X161709286Y-82885295D01*
X161709286Y-82885295D02*
X161709286Y-83123390D01*
X161709286Y-83123390D02*
X161756905Y-83218628D01*
X161756905Y-83218628D02*
X161804524Y-83266247D01*
X161804524Y-83266247D02*
X161899762Y-83313866D01*
X161899762Y-83313866D02*
X162090238Y-83313866D01*
X162090238Y-83313866D02*
X162185476Y-83266247D01*
X162185476Y-83266247D02*
X162233095Y-83218628D01*
X162233095Y-83218628D02*
X162280714Y-83123390D01*
X102594580Y-117006666D02*
X102642200Y-117054285D01*
X102642200Y-117054285D02*
X102689819Y-117197142D01*
X102689819Y-117197142D02*
X102689819Y-117292380D01*
X102689819Y-117292380D02*
X102642200Y-117435237D01*
X102642200Y-117435237D02*
X102546961Y-117530475D01*
X102546961Y-117530475D02*
X102451723Y-117578094D01*
X102451723Y-117578094D02*
X102261247Y-117625713D01*
X102261247Y-117625713D02*
X102118390Y-117625713D01*
X102118390Y-117625713D02*
X101927914Y-117578094D01*
X101927914Y-117578094D02*
X101832676Y-117530475D01*
X101832676Y-117530475D02*
X101737438Y-117435237D01*
X101737438Y-117435237D02*
X101689819Y-117292380D01*
X101689819Y-117292380D02*
X101689819Y-117197142D01*
X101689819Y-117197142D02*
X101737438Y-117054285D01*
X101737438Y-117054285D02*
X101785057Y-117006666D01*
X102689819Y-116054285D02*
X102689819Y-116625713D01*
X102689819Y-116339999D02*
X101689819Y-116339999D01*
X101689819Y-116339999D02*
X101832676Y-116435237D01*
X101832676Y-116435237D02*
X101927914Y-116530475D01*
X101927914Y-116530475D02*
X101975533Y-116625713D01*
D12*
%TO.C,U4*%
X193962500Y-92539300D02*
X193962500Y-87155700D01*
X202912500Y-90868600D02*
X202912500Y-87160000D01*
%TO.C,J1*%
X246560000Y-108740000D02*
X231860000Y-108740000D01*
X246560000Y-99540000D02*
X246560000Y-108740000D01*
X237760000Y-99540000D02*
X246560000Y-99540000D01*
X232710000Y-108940000D02*
X231660000Y-108940000D01*
X231860000Y-108740000D02*
X231860000Y-106140000D01*
X231860000Y-102240000D02*
X231860000Y-99540000D01*
X231860000Y-99540000D02*
X233760000Y-99540000D01*
X231660000Y-107890000D02*
X231660000Y-108940000D01*
%TO.C,C8*%
X207215000Y-114305225D02*
X207215000Y-114805225D01*
X207465000Y-114555225D02*
X206965000Y-114555225D01*
X208320000Y-117110000D02*
X206780000Y-117110000D01*
X204700000Y-117110000D02*
X203160000Y-117110000D01*
X208320000Y-117150000D02*
X206780000Y-117150000D01*
X204700000Y-117150000D02*
X203160000Y-117150000D01*
X208319000Y-117190000D02*
X206780000Y-117190000D01*
X204700000Y-117190000D02*
X203161000Y-117190000D01*
X208318000Y-117230000D02*
X206780000Y-117230000D01*
X204700000Y-117230000D02*
X203162000Y-117230000D01*
X208316000Y-117270000D02*
X206780000Y-117270000D01*
X204700000Y-117270000D02*
X203164000Y-117270000D01*
X208313000Y-117310000D02*
X206780000Y-117310000D01*
X204700000Y-117310000D02*
X203167000Y-117310000D01*
X208309000Y-117350000D02*
X206780000Y-117350000D01*
X204700000Y-117350000D02*
X203171000Y-117350000D01*
X208305000Y-117390000D02*
X206780000Y-117390000D01*
X204700000Y-117390000D02*
X203175000Y-117390000D01*
X208301000Y-117430000D02*
X206780000Y-117430000D01*
X204700000Y-117430000D02*
X203179000Y-117430000D01*
X208296000Y-117470000D02*
X206780000Y-117470000D01*
X204700000Y-117470000D02*
X203184000Y-117470000D01*
X208290000Y-117510000D02*
X206780000Y-117510000D01*
X204700000Y-117510000D02*
X203190000Y-117510000D01*
X208283000Y-117550000D02*
X206780000Y-117550000D01*
X204700000Y-117550000D02*
X203197000Y-117550000D01*
X208276000Y-117590000D02*
X206780000Y-117590000D01*
X204700000Y-117590000D02*
X203204000Y-117590000D01*
X208268000Y-117630000D02*
X206780000Y-117630000D01*
X204700000Y-117630000D02*
X203212000Y-117630000D01*
X208260000Y-117670000D02*
X206780000Y-117670000D01*
X204700000Y-117670000D02*
X203220000Y-117670000D01*
X208251000Y-117710000D02*
X206780000Y-117710000D01*
X204700000Y-117710000D02*
X203229000Y-117710000D01*
X208241000Y-117750000D02*
X206780000Y-117750000D01*
X204700000Y-117750000D02*
X203239000Y-117750000D01*
X208231000Y-117790000D02*
X206780000Y-117790000D01*
X204700000Y-117790000D02*
X203249000Y-117790000D01*
X208220000Y-117831000D02*
X206780000Y-117831000D01*
X204700000Y-117831000D02*
X203260000Y-117831000D01*
X208208000Y-117871000D02*
X206780000Y-117871000D01*
X204700000Y-117871000D02*
X203272000Y-117871000D01*
X208195000Y-117911000D02*
X206780000Y-117911000D01*
X204700000Y-117911000D02*
X203285000Y-117911000D01*
X208182000Y-117951000D02*
X206780000Y-117951000D01*
X204700000Y-117951000D02*
X203298000Y-117951000D01*
X208168000Y-117991000D02*
X206780000Y-117991000D01*
X204700000Y-117991000D02*
X203312000Y-117991000D01*
X208154000Y-118031000D02*
X206780000Y-118031000D01*
X204700000Y-118031000D02*
X203326000Y-118031000D01*
X208138000Y-118071000D02*
X206780000Y-118071000D01*
X204700000Y-118071000D02*
X203342000Y-118071000D01*
X208122000Y-118111000D02*
X206780000Y-118111000D01*
X204700000Y-118111000D02*
X203358000Y-118111000D01*
X208105000Y-118151000D02*
X206780000Y-118151000D01*
X204700000Y-118151000D02*
X203375000Y-118151000D01*
X208088000Y-118191000D02*
X206780000Y-118191000D01*
X204700000Y-118191000D02*
X203392000Y-118191000D01*
X208069000Y-118231000D02*
X206780000Y-118231000D01*
X204700000Y-118231000D02*
X203411000Y-118231000D01*
X208050000Y-118271000D02*
X206780000Y-118271000D01*
X204700000Y-118271000D02*
X203430000Y-118271000D01*
X208030000Y-118311000D02*
X206780000Y-118311000D01*
X204700000Y-118311000D02*
X203450000Y-118311000D01*
X208008000Y-118351000D02*
X206780000Y-118351000D01*
X204700000Y-118351000D02*
X203472000Y-118351000D01*
X207987000Y-118391000D02*
X206780000Y-118391000D01*
X204700000Y-118391000D02*
X203493000Y-118391000D01*
X207964000Y-118431000D02*
X206780000Y-118431000D01*
X204700000Y-118431000D02*
X203516000Y-118431000D01*
X207940000Y-118471000D02*
X206780000Y-118471000D01*
X204700000Y-118471000D02*
X203540000Y-118471000D01*
X207915000Y-118511000D02*
X206780000Y-118511000D01*
X204700000Y-118511000D02*
X203565000Y-118511000D01*
X207889000Y-118551000D02*
X206780000Y-118551000D01*
X204700000Y-118551000D02*
X203591000Y-118551000D01*
X207862000Y-118591000D02*
X206780000Y-118591000D01*
X204700000Y-118591000D02*
X203618000Y-118591000D01*
X207835000Y-118631000D02*
X206780000Y-118631000D01*
X204700000Y-118631000D02*
X203645000Y-118631000D01*
X207805000Y-118671000D02*
X206780000Y-118671000D01*
X204700000Y-118671000D02*
X203675000Y-118671000D01*
X207775000Y-118711000D02*
X206780000Y-118711000D01*
X204700000Y-118711000D02*
X203705000Y-118711000D01*
X207744000Y-118751000D02*
X206780000Y-118751000D01*
X204700000Y-118751000D02*
X203736000Y-118751000D01*
X207711000Y-118791000D02*
X206780000Y-118791000D01*
X204700000Y-118791000D02*
X203769000Y-118791000D01*
X207677000Y-118831000D02*
X206780000Y-118831000D01*
X204700000Y-118831000D02*
X203803000Y-118831000D01*
X207641000Y-118871000D02*
X206780000Y-118871000D01*
X204700000Y-118871000D02*
X203839000Y-118871000D01*
X207604000Y-118911000D02*
X206780000Y-118911000D01*
X204700000Y-118911000D02*
X203876000Y-118911000D01*
X207566000Y-118951000D02*
X206780000Y-118951000D01*
X204700000Y-118951000D02*
X203914000Y-118951000D01*
X207525000Y-118991000D02*
X206780000Y-118991000D01*
X204700000Y-118991000D02*
X203955000Y-118991000D01*
X207483000Y-119031000D02*
X206780000Y-119031000D01*
X204700000Y-119031000D02*
X203997000Y-119031000D01*
X207439000Y-119071000D02*
X206780000Y-119071000D01*
X204700000Y-119071000D02*
X204041000Y-119071000D01*
X207393000Y-119111000D02*
X206780000Y-119111000D01*
X204700000Y-119111000D02*
X204087000Y-119111000D01*
X207345000Y-119151000D02*
X204135000Y-119151000D01*
X207294000Y-119191000D02*
X204186000Y-119191000D01*
X207240000Y-119231000D02*
X204240000Y-119231000D01*
X207183000Y-119271000D02*
X204297000Y-119271000D01*
X207123000Y-119311000D02*
X204357000Y-119311000D01*
X207059000Y-119351000D02*
X204421000Y-119351000D01*
X206991000Y-119391000D02*
X204489000Y-119391000D01*
X206918000Y-119431000D02*
X204562000Y-119431000D01*
X206838000Y-119471000D02*
X204642000Y-119471000D01*
X206751000Y-119511000D02*
X204729000Y-119511000D01*
X206655000Y-119551000D02*
X204825000Y-119551000D01*
X206545000Y-119591000D02*
X204935000Y-119591000D01*
X206417000Y-119631000D02*
X205063000Y-119631000D01*
X206258000Y-119671000D02*
X205222000Y-119671000D01*
X206024000Y-119711000D02*
X205456000Y-119711000D01*
X208360000Y-117110000D02*
G75*
G03*
X208360000Y-117110000I-2620000J0D01*
G01*
%TO.C,J2*%
X141030000Y-69910000D02*
X139700000Y-69910000D01*
X141030000Y-68580000D02*
X141030000Y-69910000D01*
X141030000Y-67310000D02*
X141030000Y-59630000D01*
X141030000Y-67310000D02*
X138370000Y-67310000D01*
X141030000Y-59630000D02*
X138370000Y-59630000D01*
X138370000Y-67310000D02*
X138370000Y-59630000D01*
%TO.C,C4*%
X145338748Y-87990000D02*
X146761252Y-87990000D01*
X145338748Y-89810000D02*
X146761252Y-89810000D01*
%TO.C,C10*%
X160783748Y-80177500D02*
X162206252Y-80177500D01*
X160783748Y-81997500D02*
X162206252Y-81997500D01*
%TO.C,R5*%
X138952064Y-80920000D02*
X137497936Y-80920000D01*
X138952064Y-79100000D02*
X137497936Y-79100000D01*
%TO.C,C12*%
X86000000Y-116128748D02*
X86000000Y-117551252D01*
X84180000Y-116128748D02*
X84180000Y-117551252D01*
%TO.C,BT1*%
X164479087Y-112290000D02*
X161304087Y-112290000D01*
X164479087Y-101070000D02*
X164479087Y-112290000D01*
X161304087Y-101070000D02*
X164479087Y-101070000D01*
X161304086Y-101070000D02*
G75*
G03*
X161304086Y-112290000I-12434999J-5610000D01*
G01*
%TO.C,U2*%
X146797500Y-75845000D02*
X146797500Y-79445000D01*
X146797500Y-75845000D02*
X146797500Y-73645000D01*
X153567500Y-75845000D02*
X153567500Y-78045000D01*
X153567500Y-75845000D02*
X153567500Y-73645000D01*
%TO.C,R2*%
X137497936Y-86720000D02*
X138952064Y-86720000D01*
X137497936Y-88540000D02*
X138952064Y-88540000D01*
%TO.C,U1*%
X169595000Y-71300000D02*
X169595000Y-71045000D01*
X169595000Y-71045000D02*
X171410000Y-71045000D01*
X169595000Y-60780000D02*
X169595000Y-61035000D01*
X165735000Y-71300000D02*
X169595000Y-71300000D01*
X165735000Y-71300000D02*
X161875000Y-71300000D01*
X165735000Y-60780000D02*
X169595000Y-60780000D01*
X165735000Y-60780000D02*
X161875000Y-60780000D01*
X161875000Y-71300000D02*
X161875000Y-71045000D01*
X161875000Y-60780000D02*
X161875000Y-61035000D01*
%TO.C,R1*%
X137497936Y-82910000D02*
X138952064Y-82910000D01*
X137497936Y-84730000D02*
X138952064Y-84730000D01*
%TO.C,R7*%
X190149564Y-84730000D02*
X188695436Y-84730000D01*
X190149564Y-82910000D02*
X188695436Y-82910000D01*
%TO.C,R6*%
X162209564Y-89810000D02*
X160755436Y-89810000D01*
X162209564Y-87990000D02*
X160755436Y-87990000D01*
%TO.C,C3*%
X114660000Y-117551252D02*
X114660000Y-116128748D01*
X116480000Y-117551252D02*
X116480000Y-116128748D01*
%TO.C,SW3*%
X74530000Y-116090000D02*
X74530000Y-117590000D01*
X75780000Y-120090000D02*
X80280000Y-120090000D01*
X80280000Y-113590000D02*
X75780000Y-113590000D01*
X81530000Y-117590000D02*
X81530000Y-116090000D01*
%TO.C,C13*%
X169060000Y-93045000D02*
X169060000Y-94915000D01*
X169060000Y-94915000D02*
X172970000Y-94915000D01*
X172970000Y-93045000D02*
X169060000Y-93045000D01*
%TO.C,D1*%
X217550000Y-113330000D02*
X214250000Y-113330000D01*
X217550000Y-113330000D02*
X217550000Y-118840000D01*
X214250000Y-113330000D02*
X214250000Y-118840000D01*
%TO.C,U3*%
X172840000Y-102460000D02*
X171700000Y-102460000D01*
X171700000Y-102690000D02*
X171700000Y-102460000D01*
X171700000Y-102690000D02*
X168980000Y-102690000D01*
X171700000Y-97970000D02*
X171700000Y-98200000D01*
X168980000Y-102690000D02*
X168980000Y-101380000D01*
X168980000Y-99280000D02*
X168980000Y-97970000D01*
X168980000Y-97970000D02*
X171700000Y-97970000D01*
%TO.C,C2*%
X154586252Y-89810000D02*
X153163748Y-89810000D01*
X154586252Y-87990000D02*
X153163748Y-87990000D01*
%TO.C,C14*%
X188723748Y-87990000D02*
X190146252Y-87990000D01*
X188723748Y-89810000D02*
X190146252Y-89810000D01*
%TO.C,C11*%
X169060000Y-105745000D02*
X169060000Y-107615000D01*
X169060000Y-107615000D02*
X172970000Y-107615000D01*
X172970000Y-105745000D02*
X169060000Y-105745000D01*
%TO.C,SW1*%
X96770000Y-117590000D02*
X96770000Y-116090000D01*
X95520000Y-113590000D02*
X91020000Y-113590000D01*
X91020000Y-120090000D02*
X95520000Y-120090000D01*
X89770000Y-116090000D02*
X89770000Y-117590000D01*
%TO.C,R3*%
X153310000Y-65505436D02*
X153310000Y-66959564D01*
X151490000Y-65505436D02*
X151490000Y-66959564D01*
%TO.C,R8*%
X95784564Y-84730000D02*
X94330436Y-84730000D01*
X95784564Y-82910000D02*
X94330436Y-82910000D01*
%TO.C,SW2*%
X112010000Y-117590000D02*
X112010000Y-116090000D01*
X110760000Y-113590000D02*
X106260000Y-113590000D01*
X106260000Y-120090000D02*
X110760000Y-120090000D01*
X105010000Y-116090000D02*
X105010000Y-117590000D01*
%TO.C,C15*%
X94333748Y-87990000D02*
X95756252Y-87990000D01*
X94333748Y-89810000D02*
X95756252Y-89810000D01*
%TO.C,C6*%
X145338748Y-83975000D02*
X146761252Y-83975000D01*
X145338748Y-85795000D02*
X146761252Y-85795000D01*
%TO.C,R4*%
X149500000Y-65505436D02*
X149500000Y-66959564D01*
X147680000Y-65505436D02*
X147680000Y-66959564D01*
%TO.C,C7*%
X154586252Y-85795000D02*
X153163748Y-85795000D01*
X154586252Y-83975000D02*
X153163748Y-83975000D01*
%TO.C,C5*%
X137513748Y-90530000D02*
X138936252Y-90530000D01*
X137513748Y-92350000D02*
X138936252Y-92350000D01*
%TO.C,U5*%
X99665000Y-92425000D02*
X99665000Y-87041400D01*
X108615000Y-90754300D02*
X108615000Y-87045700D01*
%TO.C,F1*%
X222610000Y-117442064D02*
X222610000Y-116237936D01*
X224430000Y-117442064D02*
X224430000Y-116237936D01*
%TO.C,C9*%
X160783748Y-84180000D02*
X162206252Y-84180000D01*
X160783748Y-86000000D02*
X162206252Y-86000000D01*
%TO.C,C1*%
X99420000Y-117551252D02*
X99420000Y-116128748D01*
X101240000Y-117551252D02*
X101240000Y-116128748D01*
%TD*%
%LPC*%
D13*
%TO.C,U4*%
X194945000Y-91668600D03*
X195580000Y-91668600D03*
X196215000Y-91668600D03*
X196850000Y-91668600D03*
X197485000Y-91668600D03*
X198120000Y-91668600D03*
X198755000Y-91668600D03*
X199390000Y-91668600D03*
X200025000Y-91668600D03*
X200660000Y-91668600D03*
X201295000Y-91668600D03*
X201930000Y-91668600D03*
X201930000Y-86360000D03*
X201295000Y-86360000D03*
X200660000Y-86360000D03*
X200025000Y-86360000D03*
X199390000Y-86360000D03*
X198755000Y-86360000D03*
X198120000Y-86360000D03*
X197485000Y-86360000D03*
X196850000Y-86360000D03*
X196215000Y-86360000D03*
X195580000Y-86360000D03*
X194945000Y-86360000D03*
%TD*%
D14*
%TO.C,J1*%
X232760000Y-104140000D03*
D15*
X238760000Y-104140000D03*
D16*
X235760000Y-99440000D03*
%TD*%
D17*
%TO.C,C8*%
X205740000Y-116110000D03*
D18*
X205740000Y-118110000D03*
%TD*%
D19*
%TO.C,J2*%
X139700000Y-68580000D03*
D20*
X139700000Y-66040000D03*
X139700000Y-63500000D03*
X139700000Y-60960000D03*
%TD*%
D21*
%TO.C,C4*%
X144575000Y-88900000D03*
X147525000Y-88900000D03*
%TD*%
D22*
%TO.C,REF\u002A\u002A*%
X66040000Y-60960000D03*
%TD*%
D21*
%TO.C,C10*%
X160020000Y-81087500D03*
X162970000Y-81087500D03*
%TD*%
D23*
%TO.C,R5*%
X139687500Y-80010000D03*
X136762500Y-80010000D03*
%TD*%
D24*
%TO.C,C12*%
X85090000Y-115365000D03*
X85090000Y-118315000D03*
%TD*%
D25*
%TO.C,BT1*%
X163149087Y-106680000D03*
D26*
X143149087Y-106680000D03*
%TD*%
D27*
%TO.C,U2*%
X147257500Y-78707500D03*
X147907500Y-78707500D03*
X148557500Y-78707500D03*
X149207500Y-78707500D03*
X149857500Y-78707500D03*
X150507500Y-78707500D03*
X151157500Y-78707500D03*
X151807500Y-78707500D03*
X152457500Y-78707500D03*
X153107500Y-78707500D03*
X153107500Y-72982500D03*
X152457500Y-72982500D03*
X151807500Y-72982500D03*
X151157500Y-72982500D03*
X150507500Y-72982500D03*
X149857500Y-72982500D03*
X149207500Y-72982500D03*
X148557500Y-72982500D03*
X147907500Y-72982500D03*
X147257500Y-72982500D03*
%TD*%
D28*
%TO.C,R2*%
X136762500Y-87630000D03*
X139687500Y-87630000D03*
%TD*%
D22*
%TO.C,REF\u002A\u002A*%
X236220000Y-60960000D03*
%TD*%
D29*
%TO.C,U1*%
X170385000Y-70485000D03*
X170385000Y-69215000D03*
X170385000Y-67945000D03*
X170385000Y-66675000D03*
X170385000Y-65405000D03*
X170385000Y-64135000D03*
X170385000Y-62865000D03*
X170385000Y-61595000D03*
X161085000Y-61595000D03*
X161085000Y-62865000D03*
X161085000Y-64135000D03*
X161085000Y-65405000D03*
X161085000Y-66675000D03*
X161085000Y-67945000D03*
X161085000Y-69215000D03*
X161085000Y-70485000D03*
%TD*%
D28*
%TO.C,R1*%
X136762500Y-83820000D03*
X139687500Y-83820000D03*
%TD*%
D23*
%TO.C,R7*%
X190885000Y-83820000D03*
X187960000Y-83820000D03*
%TD*%
%TO.C,R6*%
X162945000Y-88900000D03*
X160020000Y-88900000D03*
%TD*%
D30*
%TO.C,C3*%
X115570000Y-118315000D03*
X115570000Y-115365000D03*
%TD*%
D31*
%TO.C,SW3*%
X74780000Y-114590000D03*
X81280000Y-114590000D03*
X74780000Y-119090000D03*
X81280000Y-119090000D03*
%TD*%
D32*
%TO.C,C13*%
X170020000Y-93980000D03*
X172720000Y-93980000D03*
%TD*%
D33*
%TO.C,D1*%
X215900000Y-114840000D03*
X215900000Y-118840000D03*
%TD*%
D34*
%TO.C,U3*%
X172290000Y-101830000D03*
D35*
X172202500Y-100330000D03*
D34*
X172290000Y-98830000D03*
%TD*%
D22*
%TO.C,REF\u002A\u002A*%
X236220000Y-119380000D03*
%TD*%
D36*
%TO.C,C2*%
X155350000Y-88900000D03*
X152400000Y-88900000D03*
%TD*%
D21*
%TO.C,C14*%
X187960000Y-88900000D03*
X190910000Y-88900000D03*
%TD*%
D32*
%TO.C,C11*%
X170020000Y-106680000D03*
X172720000Y-106680000D03*
%TD*%
D31*
%TO.C,SW1*%
X96520000Y-119090000D03*
X90020000Y-119090000D03*
X96520000Y-114590000D03*
X90020000Y-114590000D03*
%TD*%
D37*
%TO.C,R3*%
X152400000Y-64770000D03*
X152400000Y-67695000D03*
%TD*%
D23*
%TO.C,R8*%
X96520000Y-83820000D03*
X93595000Y-83820000D03*
%TD*%
D22*
%TO.C,REF\u002A\u002A*%
X66040000Y-119380000D03*
%TD*%
D31*
%TO.C,SW2*%
X111760000Y-119090000D03*
X105260000Y-119090000D03*
X111760000Y-114590000D03*
X105260000Y-114590000D03*
%TD*%
D21*
%TO.C,C15*%
X93570000Y-88900000D03*
X96520000Y-88900000D03*
%TD*%
%TO.C,C6*%
X144575000Y-84885000D03*
X147525000Y-84885000D03*
%TD*%
D37*
%TO.C,R4*%
X148590000Y-64770000D03*
X148590000Y-67695000D03*
%TD*%
D36*
%TO.C,C7*%
X155350000Y-84885000D03*
X152400000Y-84885000D03*
%TD*%
D21*
%TO.C,C5*%
X136750000Y-91440000D03*
X139700000Y-91440000D03*
%TD*%
D13*
%TO.C,U5*%
X100647500Y-91554300D03*
X101282500Y-91554300D03*
X101917500Y-91554300D03*
X102552500Y-91554300D03*
X103187500Y-91554300D03*
X103822500Y-91554300D03*
X104457500Y-91554300D03*
X105092500Y-91554300D03*
X105727500Y-91554300D03*
X106362500Y-91554300D03*
X106997500Y-91554300D03*
X107632500Y-91554300D03*
X107632500Y-86245700D03*
X106997500Y-86245700D03*
X106362500Y-86245700D03*
X105727500Y-86245700D03*
X105092500Y-86245700D03*
X104457500Y-86245700D03*
X103822500Y-86245700D03*
X103187500Y-86245700D03*
X102552500Y-86245700D03*
X101917500Y-86245700D03*
X101282500Y-86245700D03*
X100647500Y-86245700D03*
%TD*%
D38*
%TO.C,F1*%
X223520000Y-118240000D03*
X223520000Y-115440000D03*
%TD*%
D21*
%TO.C,C9*%
X160020000Y-85090000D03*
X162970000Y-85090000D03*
%TD*%
D30*
%TO.C,C1*%
X100330000Y-118315000D03*
X100330000Y-115365000D03*
%TD*%
D39*
%TO.C,U6*%
X218440000Y-108717500D03*
D40*
X215900000Y-108717500D03*
X213360000Y-108717500D03*
X210820000Y-108717500D03*
X208280000Y-108717500D03*
X208280000Y-68717500D03*
X210820000Y-68717500D03*
X213360000Y-68717500D03*
X215900000Y-68717500D03*
X218440000Y-68717500D03*
%TD*%
D39*
%TO.C,U7*%
X187960000Y-108580000D03*
D40*
X185420000Y-108580000D03*
X182880000Y-108580000D03*
X180340000Y-108580000D03*
X177800000Y-108580000D03*
X177800000Y-68580000D03*
X180340000Y-68580000D03*
X182880000Y-68580000D03*
X185420000Y-68580000D03*
X187960000Y-68580000D03*
%TD*%
D39*
%TO.C,U9*%
X93980000Y-108580000D03*
D40*
X91440000Y-108580000D03*
X88900000Y-108580000D03*
X86360000Y-108580000D03*
X83820000Y-108580000D03*
X83820000Y-68580000D03*
X86360000Y-68580000D03*
X88900000Y-68580000D03*
X91440000Y-68580000D03*
X93980000Y-68580000D03*
%TD*%
D39*
%TO.C,U8*%
X124460000Y-108717500D03*
D40*
X121920000Y-108717500D03*
X119380000Y-108717500D03*
X116840000Y-108717500D03*
X114300000Y-108717500D03*
X114300000Y-68717500D03*
X116840000Y-68717500D03*
X119380000Y-68717500D03*
X121920000Y-68717500D03*
X124460000Y-68717500D03*
%TD*%
%LPD*%
M02*
