%TF.GenerationSoftware,KiCad,Pcbnew,7.0.9*%
%TF.CreationDate,2024-01-28T12:11:26+01:00*%
%TF.ProjectId,Digital_Clock,44696769-7461-46c5-9f43-6c6f636b2e6b,rev?*%
%TF.SameCoordinates,Original*%
%TF.FileFunction,Paste,Top*%
%TF.FilePolarity,Positive*%
%FSLAX46Y46*%
G04 Gerber Fmt 4.6, Leading zero omitted, Abs format (unit mm)*
G04 Created by KiCad (PCBNEW 7.0.9) date 2024-01-28 12:11:26*
%MOMM*%
%LPD*%
G01*
G04 APERTURE LIST*
G04 Aperture macros list*
%AMRoundRect*
0 Rectangle with rounded corners*
0 $1 Rounding radius*
0 $2 $3 $4 $5 $6 $7 $8 $9 X,Y pos of 4 corners*
0 Add a 4 corners polygon primitive as box body*
4,1,4,$2,$3,$4,$5,$6,$7,$8,$9,$2,$3,0*
0 Add four circle primitives for the rounded corners*
1,1,$1+$1,$2,$3*
1,1,$1+$1,$4,$5*
1,1,$1+$1,$6,$7*
1,1,$1+$1,$8,$9*
0 Add four rect primitives between the rounded corners*
20,1,$1+$1,$2,$3,$4,$5,0*
20,1,$1+$1,$4,$5,$6,$7,0*
20,1,$1+$1,$6,$7,$8,$9,0*
20,1,$1+$1,$8,$9,$2,$3,0*%
%AMFreePoly0*
4,1,9,3.862500,-0.866500,0.737500,-0.866500,0.737500,-0.450000,-0.737500,-0.450000,-0.737500,0.450000,0.737500,0.450000,0.737500,0.866500,3.862500,0.866500,3.862500,-0.866500,3.862500,-0.866500,$1*%
G04 Aperture macros list end*
%ADD10R,0.410000X1.600000*%
%ADD11RoundRect,0.250000X-0.325000X-0.650000X0.325000X-0.650000X0.325000X0.650000X-0.325000X0.650000X0*%
%ADD12RoundRect,0.250000X0.312500X0.625000X-0.312500X0.625000X-0.312500X-0.625000X0.312500X-0.625000X0*%
%ADD13RoundRect,0.250000X-0.650000X0.325000X-0.650000X-0.325000X0.650000X-0.325000X0.650000X0.325000X0*%
%ADD14RoundRect,0.100000X0.100000X-0.637500X0.100000X0.637500X-0.100000X0.637500X-0.100000X-0.637500X0*%
%ADD15RoundRect,0.250000X-0.312500X-0.625000X0.312500X-0.625000X0.312500X0.625000X-0.312500X0.625000X0*%
%ADD16RoundRect,0.150000X0.875000X0.150000X-0.875000X0.150000X-0.875000X-0.150000X0.875000X-0.150000X0*%
%ADD17RoundRect,0.250000X0.650000X-0.325000X0.650000X0.325000X-0.650000X0.325000X-0.650000X-0.325000X0*%
%ADD18RoundRect,0.250000X-0.450000X-0.425000X0.450000X-0.425000X0.450000X0.425000X-0.450000X0.425000X0*%
%ADD19RoundRect,0.250000X-0.650000X1.000000X-0.650000X-1.000000X0.650000X-1.000000X0.650000X1.000000X0*%
%ADD20R,1.300000X0.900000*%
%ADD21FreePoly0,180.000000*%
%ADD22RoundRect,0.250000X0.325000X0.650000X-0.325000X0.650000X-0.325000X-0.650000X0.325000X-0.650000X0*%
%ADD23RoundRect,0.250000X-0.625000X0.312500X-0.625000X-0.312500X0.625000X-0.312500X0.625000X0.312500X0*%
%ADD24RoundRect,0.250000X0.625000X-0.375000X0.625000X0.375000X-0.625000X0.375000X-0.625000X-0.375000X0*%
G04 APERTURE END LIST*
D10*
%TO.C,U4*%
X194945000Y-91668600D03*
X195580000Y-91668600D03*
X196215000Y-91668600D03*
X196850000Y-91668600D03*
X197485000Y-91668600D03*
X198120000Y-91668600D03*
X198755000Y-91668600D03*
X199390000Y-91668600D03*
X200025000Y-91668600D03*
X200660000Y-91668600D03*
X201295000Y-91668600D03*
X201930000Y-91668600D03*
X201930000Y-86360000D03*
X201295000Y-86360000D03*
X200660000Y-86360000D03*
X200025000Y-86360000D03*
X199390000Y-86360000D03*
X198755000Y-86360000D03*
X198120000Y-86360000D03*
X197485000Y-86360000D03*
X196850000Y-86360000D03*
X196215000Y-86360000D03*
X195580000Y-86360000D03*
X194945000Y-86360000D03*
%TD*%
D11*
%TO.C,C4*%
X144575000Y-88900000D03*
X147525000Y-88900000D03*
%TD*%
%TO.C,C10*%
X160020000Y-81087500D03*
X162970000Y-81087500D03*
%TD*%
D12*
%TO.C,R5*%
X139687500Y-80010000D03*
X136762500Y-80010000D03*
%TD*%
D13*
%TO.C,C12*%
X85090000Y-115365000D03*
X85090000Y-118315000D03*
%TD*%
D14*
%TO.C,U2*%
X147257500Y-78707500D03*
X147907500Y-78707500D03*
X148557500Y-78707500D03*
X149207500Y-78707500D03*
X149857500Y-78707500D03*
X150507500Y-78707500D03*
X151157500Y-78707500D03*
X151807500Y-78707500D03*
X152457500Y-78707500D03*
X153107500Y-78707500D03*
X153107500Y-72982500D03*
X152457500Y-72982500D03*
X151807500Y-72982500D03*
X151157500Y-72982500D03*
X150507500Y-72982500D03*
X149857500Y-72982500D03*
X149207500Y-72982500D03*
X148557500Y-72982500D03*
X147907500Y-72982500D03*
X147257500Y-72982500D03*
%TD*%
D15*
%TO.C,R2*%
X136762500Y-87630000D03*
X139687500Y-87630000D03*
%TD*%
D16*
%TO.C,U1*%
X170385000Y-70485000D03*
X170385000Y-69215000D03*
X170385000Y-67945000D03*
X170385000Y-66675000D03*
X170385000Y-65405000D03*
X170385000Y-64135000D03*
X170385000Y-62865000D03*
X170385000Y-61595000D03*
X161085000Y-61595000D03*
X161085000Y-62865000D03*
X161085000Y-64135000D03*
X161085000Y-65405000D03*
X161085000Y-66675000D03*
X161085000Y-67945000D03*
X161085000Y-69215000D03*
X161085000Y-70485000D03*
%TD*%
D15*
%TO.C,R1*%
X136762500Y-83820000D03*
X139687500Y-83820000D03*
%TD*%
D12*
%TO.C,R7*%
X190885000Y-83820000D03*
X187960000Y-83820000D03*
%TD*%
%TO.C,R6*%
X162945000Y-88900000D03*
X160020000Y-88900000D03*
%TD*%
D17*
%TO.C,C3*%
X115570000Y-118315000D03*
X115570000Y-115365000D03*
%TD*%
D18*
%TO.C,C13*%
X170020000Y-93980000D03*
X172720000Y-93980000D03*
%TD*%
D19*
%TO.C,D1*%
X215900000Y-114840000D03*
X215900000Y-118840000D03*
%TD*%
D20*
%TO.C,U3*%
X172290000Y-101830000D03*
D21*
X172202500Y-100330000D03*
D20*
X172290000Y-98830000D03*
%TD*%
D22*
%TO.C,C2*%
X155350000Y-88900000D03*
X152400000Y-88900000D03*
%TD*%
D11*
%TO.C,C14*%
X187960000Y-88900000D03*
X190910000Y-88900000D03*
%TD*%
D18*
%TO.C,C11*%
X170020000Y-106680000D03*
X172720000Y-106680000D03*
%TD*%
D23*
%TO.C,R3*%
X152400000Y-64770000D03*
X152400000Y-67695000D03*
%TD*%
D12*
%TO.C,R8*%
X96520000Y-83820000D03*
X93595000Y-83820000D03*
%TD*%
D11*
%TO.C,C15*%
X93570000Y-88900000D03*
X96520000Y-88900000D03*
%TD*%
%TO.C,C6*%
X144575000Y-84885000D03*
X147525000Y-84885000D03*
%TD*%
D23*
%TO.C,R4*%
X148590000Y-64770000D03*
X148590000Y-67695000D03*
%TD*%
D22*
%TO.C,C7*%
X155350000Y-84885000D03*
X152400000Y-84885000D03*
%TD*%
D11*
%TO.C,C5*%
X136750000Y-91440000D03*
X139700000Y-91440000D03*
%TD*%
D10*
%TO.C,U5*%
X100647500Y-91554300D03*
X101282500Y-91554300D03*
X101917500Y-91554300D03*
X102552500Y-91554300D03*
X103187500Y-91554300D03*
X103822500Y-91554300D03*
X104457500Y-91554300D03*
X105092500Y-91554300D03*
X105727500Y-91554300D03*
X106362500Y-91554300D03*
X106997500Y-91554300D03*
X107632500Y-91554300D03*
X107632500Y-86245700D03*
X106997500Y-86245700D03*
X106362500Y-86245700D03*
X105727500Y-86245700D03*
X105092500Y-86245700D03*
X104457500Y-86245700D03*
X103822500Y-86245700D03*
X103187500Y-86245700D03*
X102552500Y-86245700D03*
X101917500Y-86245700D03*
X101282500Y-86245700D03*
X100647500Y-86245700D03*
%TD*%
D24*
%TO.C,F1*%
X223520000Y-118240000D03*
X223520000Y-115440000D03*
%TD*%
D11*
%TO.C,C9*%
X160020000Y-85090000D03*
X162970000Y-85090000D03*
%TD*%
D17*
%TO.C,C1*%
X100330000Y-118315000D03*
X100330000Y-115365000D03*
%TD*%
M02*
