M48
; DRILL file {KiCad 7.0.9} date Sun Jan 28 12:12:16 2024
; FORMAT={-:-/ absolute / metric / decimal}
; #@! TF.CreationDate,2024-01-28T12:12:16+01:00
; #@! TF.GenerationSoftware,Kicad,Pcbnew,7.0.9
; #@! TF.FileFunction,Plated,1,2,PTH
FMAT,2
METRIC
; #@! TA.AperFunction,Plated,PTH,ViaDrill
T1C0.400
; #@! TA.AperFunction,Plated,PTH,ViaDrill
T2C0.800
; #@! TA.AperFunction,Plated,PTH,ComponentDrill
T3C0.800
; #@! TA.AperFunction,Plated,PTH,ComponentDrill
T4C1.000
; #@! TA.AperFunction,Plated,PTH,ComponentDrill
T5C1.100
; #@! TA.AperFunction,Plated,PTH,ComponentDrill
T6C1.300
; #@! TA.AperFunction,Plated,PTH,ComponentDrill
T7C3.200
%
G90
G05
T1
X62.23Y-57.15
X62.23Y-65.405
X62.23Y-73.66
X62.23Y-81.915
X62.23Y-90.17
X62.23Y-98.425
X62.23Y-106.68
X62.23Y-114.935
X62.23Y-123.19
X72.39Y-81.28
X72.39Y-97.79
X73.343Y-57.15
X73.343Y-123.19
X73.66Y-67.945
X80.645Y-87.63
X84.445Y-123.19
X84.455Y-57.15
X84.455Y-106.68
X87.63Y-70.485
X88.265Y-96.774
X92.71Y-106.045
X93.345Y-98.425
X93.98Y-71.12
X95.568Y-57.15
X95.568Y-123.19
X95.885Y-109.22
X98.425Y-81.28
X98.425Y-85.09
X98.62Y-91.0
X100.076Y-94.234
X100.33Y-82.55
X100.33Y-99.695
X101.6Y-78.74
X102.463Y-83.661
X102.87Y-70.485
X102.87Y-89.624
X104.14Y-109.22
X104.457Y-93.98
X106.021Y-94.097
X106.045Y-88.265
X106.68Y-57.15
X106.68Y-93.345
X106.68Y-123.19
X109.093Y-84.455
X109.22Y-90.805
X109.22Y-104.14
X110.363Y-94.996
X112.395Y-109.22
X114.935Y-71.12
X114.935Y-78.105
X115.062Y-96.266
X115.443Y-74.676
X117.475Y-101.6
X117.793Y-57.15
X117.793Y-123.19
X118.11Y-81.915
X119.761Y-74.676
X120.015Y-70.485
X120.65Y-85.09
X121.285Y-92.075
X124.46Y-77.47
X125.857Y-106.172
X126.111Y-74.295
X126.365Y-95.885
X126.365Y-113.03
X128.905Y-57.15
X128.905Y-78.105
X128.905Y-123.19
X129.54Y-71.12
X129.54Y-74.93
X130.175Y-84.455
X130.175Y-92.075
X130.175Y-109.22
X130.454Y-73.558
X133.985Y-69.952
X134.62Y-85.725
X135.89Y-95.885
X136.525Y-102.87
X137.795Y-65.405
X138.43Y-83.82
X138.43Y-87.63
X139.7Y-73.66
X140.018Y-57.15
X140.018Y-123.19
X143.51Y-95.885
X145.288Y-80.975
X145.339Y-67.056
X145.415Y-78.105
X147.955Y-109.22
X147.955Y-113.03
X149.225Y-86.868
X150.495Y-71.12
X150.582Y-76.2
X151.13Y-57.15
X151.13Y-123.19
X151.892Y-76.708
X152.4Y-71.12
X152.4Y-74.93
X153.67Y-71.12
X153.67Y-81.28
X154.305Y-91.44
X154.94Y-78.74
X154.94Y-95.885
X156.845Y-80.772
X158.496Y-67.691
X158.75Y-77.47
X160.02Y-73.66
X160.02Y-91.44
X161.417Y-90.424
X162.243Y-57.15
X162.243Y-123.19
X162.56Y-77.47
X163.195Y-113.03
X163.83Y-68.58
X165.1Y-92.075
X165.1Y-95.885
X166.565Y-77.275
X167.005Y-90.17
X167.64Y-109.22
X168.021Y-68.453
X168.91Y-84.455
X168.91Y-92.075
X169.545Y-97.79
X172.847Y-70.485
X173.355Y-57.15
X173.355Y-83.185
X173.355Y-123.19
X173.99Y-89.535
X174.498Y-67.31
X179.07Y-93.345
X182.499Y-97.663
X183.134Y-74.295
X183.515Y-94.525
X184.15Y-96.52
X184.468Y-57.15
X184.468Y-123.19
X185.42Y-95.25
X186.055Y-113.03
X186.436Y-94.488
X187.325Y-99.06
X187.325Y-106.045
X187.96Y-71.12
X190.5Y-109.22
X192.405Y-82.55
X193.04Y-85.09
X193.04Y-91.44
X193.548Y-93.472
X195.58Y-57.15
X195.58Y-82.55
X195.58Y-123.19
X196.215Y-79.375
X197.256Y-70.51
X197.286Y-89.822
X197.358Y-95.25
X198.12Y-109.22
X200.279Y-88.519
X202.565Y-102.87
X203.403Y-84.226
X203.835Y-92.075
X203.835Y-113.03
X205.74Y-109.22
X206.693Y-57.15
X206.693Y-123.19
X208.28Y-113.665
X208.915Y-71.12
X208.915Y-78.105
X210.185Y-100.203
X212.725Y-81.915
X213.512Y-75.641
X213.995Y-71.12
X217.805Y-57.15
X217.805Y-123.19
X219.71Y-91.44
X222.25Y-102.87
X226.06Y-113.665
X226.695Y-81.915
X227.33Y-68.58
X228.918Y-57.15
X228.918Y-123.19
X240.03Y-57.15
X240.03Y-65.405
X240.03Y-73.66
X240.03Y-81.915
X240.03Y-90.17
X240.03Y-98.425
X240.03Y-106.68
X240.03Y-114.935
X240.03Y-123.19
T2
X85.09Y-120.015
X92.075Y-83.82
X92.075Y-88.9
X100.33Y-120.015
X115.57Y-120.015
X134.62Y-80.01
X134.62Y-91.44
X142.24Y-85.09
X142.24Y-88.9
X157.48Y-85.09
X157.48Y-88.9
X165.1Y-81.28
X165.1Y-85.09
X165.735Y-61.595
X165.735Y-62.865
X165.735Y-64.135
X165.735Y-65.405
X174.625Y-93.98
X174.625Y-102.235
X174.625Y-106.68
X186.055Y-83.82
X186.055Y-88.9
X213.36Y-118.745
T3
X83.82Y-68.58
X83.82Y-108.58
X86.36Y-68.58
X86.36Y-108.58
X88.9Y-68.58
X88.9Y-108.58
X91.44Y-68.58
X91.44Y-108.58
X93.98Y-68.58
X93.98Y-108.58
X114.3Y-68.718
X114.3Y-108.718
X116.84Y-68.718
X116.84Y-108.718
X119.38Y-68.718
X119.38Y-108.718
X121.92Y-68.718
X121.92Y-108.718
X124.46Y-68.718
X124.46Y-108.718
X177.8Y-68.58
X177.8Y-108.58
X180.34Y-68.58
X180.34Y-108.58
X182.88Y-68.58
X182.88Y-108.58
X185.42Y-68.58
X185.42Y-108.58
X187.96Y-68.58
X187.96Y-108.58
X205.74Y-116.11
X205.74Y-118.11
X208.28Y-68.718
X208.28Y-108.718
X210.82Y-68.718
X210.82Y-108.718
X213.36Y-68.718
X213.36Y-108.718
X215.9Y-68.718
X215.9Y-108.718
X218.44Y-68.718
X218.44Y-108.718
T4
X139.7Y-60.96
X139.7Y-63.5
X139.7Y-66.04
X139.7Y-68.58
T5
X74.78Y-114.59
X74.78Y-119.09
X81.28Y-114.59
X81.28Y-119.09
X90.02Y-114.59
X90.02Y-119.09
X96.52Y-114.59
X96.52Y-119.09
X105.26Y-114.59
X105.26Y-119.09
X111.76Y-114.59
X111.76Y-119.09
T6
X143.149Y-106.68
X163.149Y-106.68
T7
X66.04Y-60.96
X66.04Y-119.38
X236.22Y-60.96
X236.22Y-119.38
T4
X232.76Y-105.14G85X232.76Y-103.14
G05
X236.76Y-99.44G85X234.76Y-99.44
G05
X238.76Y-105.14G85X238.76Y-103.14
G05
T0
M30
