%TF.GenerationSoftware,KiCad,Pcbnew,7.0.9*%
%TF.CreationDate,2024-01-28T12:11:26+01:00*%
%TF.ProjectId,Digital_Clock,44696769-7461-46c5-9f43-6c6f636b2e6b,rev?*%
%TF.SameCoordinates,Original*%
%TF.FileFunction,Soldermask,Bot*%
%TF.FilePolarity,Negative*%
%FSLAX46Y46*%
G04 Gerber Fmt 4.6, Leading zero omitted, Abs format (unit mm)*
G04 Created by KiCad (PCBNEW 7.0.9) date 2024-01-28 12:11:26*
%MOMM*%
%LPD*%
G01*
G04 APERTURE LIST*
G04 Aperture macros list*
%AMRoundRect*
0 Rectangle with rounded corners*
0 $1 Rounding radius*
0 $2 $3 $4 $5 $6 $7 $8 $9 X,Y pos of 4 corners*
0 Add a 4 corners polygon primitive as box body*
4,1,4,$2,$3,$4,$5,$6,$7,$8,$9,$2,$3,0*
0 Add four circle primitives for the rounded corners*
1,1,$1+$1,$2,$3*
1,1,$1+$1,$4,$5*
1,1,$1+$1,$6,$7*
1,1,$1+$1,$8,$9*
0 Add four rect primitives between the rounded corners*
20,1,$1+$1,$2,$3,$4,$5,0*
20,1,$1+$1,$4,$5,$6,$7,0*
20,1,$1+$1,$6,$7,$8,$9,0*
20,1,$1+$1,$8,$9,$2,$3,0*%
G04 Aperture macros list end*
%ADD10R,3.500000X3.500000*%
%ADD11RoundRect,0.750000X0.750000X1.000000X-0.750000X1.000000X-0.750000X-1.000000X0.750000X-1.000000X0*%
%ADD12RoundRect,0.875000X0.875000X0.875000X-0.875000X0.875000X-0.875000X-0.875000X0.875000X-0.875000X0*%
%ADD13R,1.600000X1.600000*%
%ADD14C,1.600000*%
%ADD15R,1.700000X1.700000*%
%ADD16O,1.700000X1.700000*%
%ADD17C,5.600000*%
%ADD18R,2.100000X2.100000*%
%ADD19C,2.100000*%
%ADD20C,2.000000*%
%ADD21R,1.500000X1.500000*%
%ADD22C,1.500000*%
G04 APERTURE END LIST*
D10*
%TO.C,J1*%
X232760000Y-104140000D03*
D11*
X238760000Y-104140000D03*
D12*
X235760000Y-99440000D03*
%TD*%
D13*
%TO.C,C8*%
X205740000Y-116110000D03*
D14*
X205740000Y-118110000D03*
%TD*%
D15*
%TO.C,J2*%
X139700000Y-68580000D03*
D16*
X139700000Y-66040000D03*
X139700000Y-63500000D03*
X139700000Y-60960000D03*
%TD*%
D17*
%TO.C,REF\u002A\u002A*%
X66040000Y-60960000D03*
%TD*%
D18*
%TO.C,BT1*%
X163149087Y-106680000D03*
D19*
X143149087Y-106680000D03*
%TD*%
D17*
%TO.C,REF\u002A\u002A*%
X236220000Y-60960000D03*
%TD*%
D20*
%TO.C,SW3*%
X74780000Y-114590000D03*
X81280000Y-114590000D03*
X74780000Y-119090000D03*
X81280000Y-119090000D03*
%TD*%
D17*
%TO.C,REF\u002A\u002A*%
X236220000Y-119380000D03*
%TD*%
D20*
%TO.C,SW1*%
X96520000Y-119090000D03*
X90020000Y-119090000D03*
X96520000Y-114590000D03*
X90020000Y-114590000D03*
%TD*%
D17*
%TO.C,REF\u002A\u002A*%
X66040000Y-119380000D03*
%TD*%
D20*
%TO.C,SW2*%
X111760000Y-119090000D03*
X105260000Y-119090000D03*
X111760000Y-114590000D03*
X105260000Y-114590000D03*
%TD*%
D21*
%TO.C,U6*%
X218440000Y-108717500D03*
D22*
X215900000Y-108717500D03*
X213360000Y-108717500D03*
X210820000Y-108717500D03*
X208280000Y-108717500D03*
X208280000Y-68717500D03*
X210820000Y-68717500D03*
X213360000Y-68717500D03*
X215900000Y-68717500D03*
X218440000Y-68717500D03*
%TD*%
D21*
%TO.C,U7*%
X187960000Y-108580000D03*
D22*
X185420000Y-108580000D03*
X182880000Y-108580000D03*
X180340000Y-108580000D03*
X177800000Y-108580000D03*
X177800000Y-68580000D03*
X180340000Y-68580000D03*
X182880000Y-68580000D03*
X185420000Y-68580000D03*
X187960000Y-68580000D03*
%TD*%
D21*
%TO.C,U9*%
X93980000Y-108580000D03*
D22*
X91440000Y-108580000D03*
X88900000Y-108580000D03*
X86360000Y-108580000D03*
X83820000Y-108580000D03*
X83820000Y-68580000D03*
X86360000Y-68580000D03*
X88900000Y-68580000D03*
X91440000Y-68580000D03*
X93980000Y-68580000D03*
%TD*%
D21*
%TO.C,U8*%
X124460000Y-108717500D03*
D22*
X121920000Y-108717500D03*
X119380000Y-108717500D03*
X116840000Y-108717500D03*
X114300000Y-108717500D03*
X114300000Y-68717500D03*
X116840000Y-68717500D03*
X119380000Y-68717500D03*
X121920000Y-68717500D03*
X124460000Y-68717500D03*
%TD*%
M02*
